<svg version="1.1" xmlns="http://www.w3.org/2000/svg" xmlns:xlink="http://www.w3.org/1999/xlink" width="288.38016" height="162.22674" viewBox="0,0,288.38016,162.22674"><defs><linearGradient x1="212.69288" y1="130.40335" x2="212.69288" y2="179.72177" gradientUnits="userSpaceOnUse" id="color-1"><stop offset="0" stop-color="#e0fff8" stop-opacity="0.50417"/><stop offset="1" stop-color="#c5d9d5" stop-opacity="0.75"/></linearGradient><linearGradient x1="203.60444" y1="139.4277" x2="216.81752" y2="180.30402" gradientUnits="userSpaceOnUse" id="color-2"><stop offset="0" stop-color="#aabdb9" stop-opacity="0"/><stop offset="1" stop-color="#aabdb9"/></linearGradient><linearGradient x1="212.69288" y1="130.40335" x2="212.69288" y2="179.72177" gradientUnits="userSpaceOnUse" id="color-3"><stop offset="0" stop-color="#ffffff" stop-opacity="0.75806"/><stop offset="1" stop-color="#ffffff" stop-opacity="0"/></linearGradient><linearGradient x1="239.03203" y1="138.87512" x2="239.03203" y2="165.95369" gradientUnits="userSpaceOnUse" id="color-4"><stop offset="0" stop-color="#aabdb9" stop-opacity="0"/><stop offset="1" stop-color="#aabdb9"/></linearGradient><linearGradient x1="233.24764" y1="142.81613" x2="233.24764" y2="166.33506" gradientUnits="userSpaceOnUse" id="color-5"><stop offset="0" stop-color="#aabdb9" stop-opacity="0"/><stop offset="1" stop-color="#aabdb9"/></linearGradient><linearGradient x1="227.33612" y1="145.86724" x2="227.33612" y2="167.09785" gradientUnits="userSpaceOnUse" id="color-6"><stop offset="0" stop-color="#aabdb9" stop-opacity="0"/><stop offset="1" stop-color="#aabdb9"/></linearGradient><linearGradient x1="221.91202" y1="149.07333" x2="221.91202" y2="168.52202" gradientUnits="userSpaceOnUse" id="color-7"><stop offset="0" stop-color="#aabdb9" stop-opacity="0"/><stop offset="1" stop-color="#aabdb9"/></linearGradient><linearGradient x1="215.31639" y1="152.62485" x2="215.31639" y2="170.04409" gradientUnits="userSpaceOnUse" id="color-8"><stop offset="0" stop-color="#aabdb9" stop-opacity="0"/><stop offset="1" stop-color="#aabdb9"/></linearGradient><linearGradient x1="209.90458" y1="157.27561" x2="209.90458" y2="171.65072" gradientUnits="userSpaceOnUse" id="color-9"><stop offset="0" stop-color="#aabdb9" stop-opacity="0"/><stop offset="1" stop-color="#aabdb9"/></linearGradient><linearGradient x1="203.26667" y1="160.658" x2="203.26667" y2="173.59559" gradientUnits="userSpaceOnUse" id="color-10"><stop offset="0" stop-color="#aabdb9" stop-opacity="0"/><stop offset="1" stop-color="#aabdb9"/></linearGradient><linearGradient x1="197.3475" y1="164.63229" x2="197.3475" y2="174.94854" gradientUnits="userSpaceOnUse" id="color-11"><stop offset="0" stop-color="#aabdb9" stop-opacity="0"/><stop offset="1" stop-color="#aabdb9"/></linearGradient><linearGradient x1="195.28355" y1="170.64018" x2="195.28355" y2="176.72758" gradientUnits="userSpaceOnUse" id="color-12"><stop offset="0" stop-color="#aabdb9" stop-opacity="0"/><stop offset="1" stop-color="#aabdb9"/></linearGradient><linearGradient x1="195.16446" y1="245.52218" x2="193.77261" y2="290.9345" gradientUnits="userSpaceOnUse" id="color-13"><stop offset="0" stop-color="#cae6df" stop-opacity="0.75"/><stop offset="1" stop-color="#e8fffa" stop-opacity="0.5"/></linearGradient><linearGradient x1="200.21729" y1="240.45158" x2="188.17981" y2="279.47416" gradientUnits="userSpaceOnUse" id="color-14"><stop offset="0" stop-color="#aebfbc"/><stop offset="1" stop-color="#aebfbc" stop-opacity="0"/></linearGradient><linearGradient x1="201.80401" y1="240.02462" x2="191.09111" y2="271.22044" gradientUnits="userSpaceOnUse" id="color-15"><stop offset="0" stop-color="#ffffff" stop-opacity="0.45161"/><stop offset="1" stop-color="#ffffff" stop-opacity="0"/></linearGradient><linearGradient x1="223.42721" y1="250.7023" x2="223.42721" y2="278.09956" gradientUnits="userSpaceOnUse" id="color-16"><stop offset="0" stop-color="#aebfbc"/><stop offset="1" stop-color="#aebfbc" stop-opacity="0"/></linearGradient><linearGradient x1="218.69188" y1="249.18023" x2="218.69188" y2="274.29438" gradientUnits="userSpaceOnUse" id="color-17"><stop offset="0" stop-color="#aebfbc"/><stop offset="1" stop-color="#aebfbc" stop-opacity="0"/></linearGradient><linearGradient x1="213.2378" y1="247.82728" x2="213.2378" y2="273.11055" gradientUnits="userSpaceOnUse" id="color-18"><stop offset="0" stop-color="#aebfbc"/><stop offset="1" stop-color="#aebfbc" stop-opacity="0"/></linearGradient><linearGradient x1="208.37563" y1="245.96697" x2="208.37563" y2="270.48921" gradientUnits="userSpaceOnUse" id="color-19"><stop offset="0" stop-color="#aebfbc"/><stop offset="1" stop-color="#aebfbc" stop-opacity="0"/></linearGradient><linearGradient x1="202.54103" y1="244.52946" x2="202.54103" y2="268.71346" gradientUnits="userSpaceOnUse" id="color-20"><stop offset="0" stop-color="#aebfbc"/><stop offset="1" stop-color="#aebfbc" stop-opacity="0"/></linearGradient><linearGradient x1="196.87554" y1="242.92283" x2="196.87554" y2="265.75388" gradientUnits="userSpaceOnUse" id="color-21"><stop offset="0" stop-color="#aebfbc"/><stop offset="1" stop-color="#aebfbc" stop-opacity="0"/></linearGradient><linearGradient x1="190.57586" y1="242.07724" x2="190.57586" y2="264.40093" gradientUnits="userSpaceOnUse" id="color-22"><stop offset="0" stop-color="#aebfbc"/><stop offset="1" stop-color="#aebfbc" stop-opacity="0"/></linearGradient><linearGradient x1="184.40302" y1="241.40076" x2="184.40302" y2="263.21709" gradientUnits="userSpaceOnUse" id="color-23"><stop offset="0" stop-color="#aebfbc"/><stop offset="1" stop-color="#aebfbc" stop-opacity="0"/></linearGradient><linearGradient x1="179.28718" y1="240.63973" x2="179.28718" y2="261.18767" gradientUnits="userSpaceOnUse" id="color-24"><stop offset="0" stop-color="#aebfbc"/><stop offset="1" stop-color="#aebfbc" stop-opacity="0"/></linearGradient><linearGradient x1="173.66397" y1="239.28677" x2="173.66397" y2="260.00383" gradientUnits="userSpaceOnUse" id="color-25"><stop offset="0" stop-color="#aebfbc"/><stop offset="1" stop-color="#aebfbc" stop-opacity="0"/></linearGradient><linearGradient x1="79.85765" y1="214.06002" x2="146.22186" y2="214.06002" gradientUnits="userSpaceOnUse" id="color-26"><stop offset="0" stop-color="#e0fff7" stop-opacity="0.5"/><stop offset="1" stop-color="#c5d9d5" stop-opacity="0.75"/></linearGradient><linearGradient x1="79.85765" y1="214.06002" x2="146.22186" y2="214.06002" gradientUnits="userSpaceOnUse" id="color-27"><stop offset="0" stop-color="#aabdb9" stop-opacity="0"/><stop offset="1" stop-color="#aabdb9"/></linearGradient><linearGradient x1="113.03976" y1="162.64941" x2="113.03976" y2="224.65341" gradientUnits="userSpaceOnUse" id="color-28"><stop offset="0" stop-color="#ffffff" stop-opacity="0.75806"/><stop offset="1" stop-color="#ffffff" stop-opacity="0"/></linearGradient><linearGradient x1="80.77301" y1="185.20722" x2="139.92998" y2="185.20722" gradientUnits="userSpaceOnUse" id="color-29"><stop offset="0" stop-color="#aabdb9" stop-opacity="0"/><stop offset="1" stop-color="#aabdb9"/></linearGradient><linearGradient x1="81.6451" y1="191.45722" x2="136.15091" y2="191.45722" gradientUnits="userSpaceOnUse" id="color-30"><stop offset="0" stop-color="#aabdb9" stop-opacity="0"/><stop offset="1" stop-color="#aabdb9"/></linearGradient><linearGradient x1="83.09859" y1="197.7799" x2="133.67998" y2="197.7799" gradientUnits="userSpaceOnUse" id="color-31"><stop offset="0" stop-color="#aabdb9" stop-opacity="0"/><stop offset="1" stop-color="#aabdb9"/></linearGradient><linearGradient x1="86.44161" y1="204.53862" x2="132.66254" y2="204.53862" gradientUnits="userSpaceOnUse" id="color-32"><stop offset="0" stop-color="#aabdb9" stop-opacity="0"/><stop offset="1" stop-color="#aabdb9"/></linearGradient><linearGradient x1="97.48812" y1="213.18687" x2="131.9358" y2="213.18687" gradientUnits="userSpaceOnUse" id="color-33"><stop offset="0" stop-color="#aabdb9" stop-opacity="0"/><stop offset="1" stop-color="#aabdb9"/></linearGradient><linearGradient x1="87.8951" y1="220.81769" x2="132.80789" y2="220.81769" gradientUnits="userSpaceOnUse" id="color-34"><stop offset="0" stop-color="#aabdb9" stop-opacity="0"/><stop offset="1" stop-color="#aabdb9"/></linearGradient><linearGradient x1="85.42417" y1="227.93978" x2="133.38929" y2="227.93978" gradientUnits="userSpaceOnUse" id="color-35"><stop offset="0" stop-color="#aabdb9" stop-opacity="0"/><stop offset="1" stop-color="#aabdb9"/></linearGradient><linearGradient x1="83.53463" y1="234.9892" x2="134.84277" y2="234.9892" gradientUnits="userSpaceOnUse" id="color-36"><stop offset="0" stop-color="#aabdb9" stop-opacity="0"/><stop offset="1" stop-color="#aabdb9"/></linearGradient><linearGradient x1="82.37184" y1="240.73048" x2="139.34859" y2="240.73048" gradientUnits="userSpaceOnUse" id="color-37"><stop offset="0" stop-color="#aabdb9" stop-opacity="0"/><stop offset="1" stop-color="#aabdb9"/></linearGradient><linearGradient x1="249.87928" y1="167.01522" x2="249.87928" y2="253.5016" gradientUnits="userSpaceOnUse" id="color-38"><stop offset="0" stop-color="#91bbb4"/><stop offset="1" stop-color="#e8e8e8"/></linearGradient><linearGradient x1="249.27743" y1="167.01522" x2="249.27743" y2="253.5016" gradientUnits="userSpaceOnUse" id="color-39"><stop offset="0" stop-color="#b8ccc9"/><stop offset="1" stop-color="#d7dedd"/></linearGradient><linearGradient x1="301.8442" y1="185.95014" x2="301.8442" y2="241.34488" gradientUnits="userSpaceOnUse" id="color-40"><stop offset="0" stop-color="#8eaba5"/><stop offset="1" stop-color="#8eaba5" stop-opacity="0"/></linearGradient><linearGradient x1="249.28475" y1="167.01522" x2="249.28475" y2="213.84075" gradientUnits="userSpaceOnUse" id="color-41"><stop offset="0" stop-color="#ffffff"/><stop offset="1" stop-color="#ffffff" stop-opacity="0"/></linearGradient><linearGradient x1="351.66384" y1="208.06353" x2="351.66384" y2="218.59208" gradientUnits="userSpaceOnUse" id="color-42"><stop offset="0" stop-color="#dae6e3"/><stop offset="1" stop-color="#bec8c5"/></linearGradient><linearGradient x1="351.13174" y1="208.06352" x2="351.13174" y2="219.2315" gradientUnits="userSpaceOnUse" id="color-43"><stop offset="0" stop-color="#b8c2c0" stop-opacity="0"/><stop offset="1" stop-color="#b8c2c0"/></linearGradient><linearGradient x1="348.56444" y1="206.93851" x2="352.51716" y2="215.39311" gradientUnits="userSpaceOnUse" id="color-44"><stop offset="0" stop-color="#e4f0ee"/><stop offset="1" stop-color="#b4bebb"/></linearGradient><linearGradient x1="348.56444" y1="206.93851" x2="352.51716" y2="215.39311" gradientUnits="userSpaceOnUse" id="color-45"><stop offset="0" stop-color="#b4c2c2" stop-opacity="0"/><stop offset="1" stop-color="#b4c2c2"/></linearGradient><linearGradient x1="309.29699" y1="196.12115" x2="309.29699" y2="227.80071" gradientUnits="userSpaceOnUse" id="color-46"><stop offset="0" stop-color="#9fbab5"/><stop offset="1" stop-color="#9fbab5" stop-opacity="0"/></linearGradient><linearGradient x1="349.14291" y1="206.22765" x2="351.44633" y2="212.87614" gradientUnits="userSpaceOnUse" id="color-47"><stop offset="0" stop-color="#f4f7f7"/><stop offset="1" stop-color="#f4f7f7" stop-opacity="0"/></linearGradient><radialGradient cx="287.1837" cy="226.83019" r="10.49944" gradientUnits="userSpaceOnUse" id="color-48"><stop offset="0" stop-color="#a1bfb9"/><stop offset="1" stop-color="#a1bfb9" stop-opacity="0"/></radialGradient><linearGradient x1="245.02909" y1="223.17387" x2="287.89279" y2="223.17387" gradientUnits="userSpaceOnUse" id="color-49"><stop offset="0" stop-color="#e0fff8" stop-opacity="0.5"/><stop offset="1" stop-color="#c5d9d5" stop-opacity="0.75"/></linearGradient><linearGradient x1="245.02909" y1="223.17387" x2="287.89279" y2="223.17387" gradientUnits="userSpaceOnUse" id="color-50"><stop offset="0" stop-color="#b8ccc9" stop-opacity="0"/><stop offset="1" stop-color="#b8ccc9"/></linearGradient><linearGradient x1="264.68059" y1="211.38131" x2="264.68059" y2="230.92112" gradientUnits="userSpaceOnUse" id="color-51"><stop offset="0" stop-color="#ffffff" stop-opacity="0.75806"/><stop offset="1" stop-color="#ffffff" stop-opacity="0"/></linearGradient><linearGradient x1="328.85266" y1="194.02257" x2="328.85266" y2="209.66299" gradientUnits="userSpaceOnUse" id="color-52"><stop offset="0" stop-color="#ced9d5"/><stop offset="1" stop-color="#f2f2f2"/></linearGradient><linearGradient x1="328.85266" y1="194.02257" x2="328.85266" y2="209.66299" gradientUnits="userSpaceOnUse" id="color-53"><stop offset="0" stop-color="#c2ccc9"/><stop offset="1" stop-color="#c2ccc9" stop-opacity="0"/></linearGradient><radialGradient cx="328.98918" cy="201.84278" r="3.7999" gradientUnits="userSpaceOnUse" id="color-54"><stop offset="0" stop-color="#485b67"/><stop offset="1" stop-color="#000000"/></radialGradient><linearGradient x1="328.98918" y1="197.60038" x2="328.98918" y2="206.08517" gradientUnits="userSpaceOnUse" id="color-55"><stop offset="0" stop-color="#3e2f22" stop-opacity="0"/><stop offset="1" stop-color="#3e2f22"/></linearGradient><linearGradient x1="328.3259" y1="196.22885" x2="328.3259" y2="201.40523" gradientUnits="userSpaceOnUse" id="color-56"><stop offset="0" stop-color="#ffffff"/><stop offset="1" stop-color="#ffffff" stop-opacity="0"/></linearGradient><linearGradient x1="327.30689" y1="196.99678" x2="327.30689" y2="199.38587" gradientUnits="userSpaceOnUse" id="color-57"><stop offset="0" stop-color="#ffffff"/><stop offset="1" stop-color="#ffffff" stop-opacity="0"/></linearGradient><linearGradient x1="246.18361" y1="218.52205" x2="283.57884" y2="218.52205" gradientUnits="userSpaceOnUse" id="color-58"><stop offset="0" stop-color="#b8ccc9" stop-opacity="0"/><stop offset="1" stop-color="#b8ccc9"/></linearGradient><linearGradient x1="248.9775" y1="222.39053" x2="283.68629" y2="222.39053" gradientUnits="userSpaceOnUse" id="color-59"><stop offset="0" stop-color="#b8ccc9" stop-opacity="0"/><stop offset="1" stop-color="#b8ccc9"/></linearGradient><linearGradient x1="253.38326" y1="226.36646" x2="283.79375" y2="226.36646" gradientUnits="userSpaceOnUse" id="color-60"><stop offset="0" stop-color="#b8ccc9" stop-opacity="0"/><stop offset="1" stop-color="#b8ccc9"/></linearGradient><linearGradient x1="254.67275" y1="229.53645" x2="285.1907" y2="229.53645" gradientUnits="userSpaceOnUse" id="color-61"><stop offset="0" stop-color="#b8ccc9" stop-opacity="0"/><stop offset="1" stop-color="#b8ccc9"/></linearGradient><linearGradient x1="257.89648" y1="231.95425" x2="285.62053" y2="231.95425" gradientUnits="userSpaceOnUse" id="color-62"><stop offset="0" stop-color="#b8ccc9" stop-opacity="0"/><stop offset="1" stop-color="#b8ccc9"/></linearGradient><linearGradient x1="221.79821" y1="263.16466" x2="284.03792" y2="261.96995" gradientUnits="userSpaceOnUse" id="color-63"><stop offset="0" stop-color="#e0fff8" stop-opacity="0.5"/><stop offset="1" stop-color="#c5d9d5" stop-opacity="0.75"/></linearGradient><linearGradient x1="218.85073" y1="268.82756" x2="281.81613" y2="244.70514" gradientUnits="userSpaceOnUse" id="color-64"><stop offset="0" stop-color="#acbdba" stop-opacity="0"/><stop offset="1" stop-color="#acbdba"/></linearGradient><linearGradient x1="255.67988" y1="248.51334" x2="255.67988" y2="263.61579" gradientUnits="userSpaceOnUse" id="color-65"><stop offset="0" stop-color="#ffffff" stop-opacity="0.75806"/><stop offset="1" stop-color="#ffffff" stop-opacity="0"/></linearGradient><linearGradient x1="227.29137" y1="260.61517" x2="278.81872" y2="260.61517" gradientUnits="userSpaceOnUse" id="color-66"><stop offset="0" stop-color="#afbfbc" stop-opacity="0"/><stop offset="1" stop-color="#afbfbc"/></linearGradient><linearGradient x1="226.87177" y1="258.34931" x2="273.53172" y2="258.34931" gradientUnits="userSpaceOnUse" id="color-67"><stop offset="0" stop-color="#b1c2be" stop-opacity="0"/><stop offset="1" stop-color="#b1c2be"/></linearGradient><linearGradient x1="229.89292" y1="255.53796" x2="266.5663" y2="255.53796" gradientUnits="userSpaceOnUse" id="color-68"><stop offset="0" stop-color="#b5c6c3" stop-opacity="0"/><stop offset="1" stop-color="#b5c6c3"/></linearGradient><linearGradient x1="230.73212" y1="253.23014" x2="260.1044" y2="253.23014" gradientUnits="userSpaceOnUse" id="color-69"><stop offset="0" stop-color="#b9cac7" stop-opacity="0"/><stop offset="1" stop-color="#b9cac7"/></linearGradient></defs><g transform="translate(-79.02749,-128.62216)"><g data-paper-data="{&quot;isPaintingLayer&quot;:true}" fill-rule="nonzero" stroke-linejoin="miter" stroke-miterlimit="10" stroke-dasharray="" stroke-dashoffset="0" style="mix-blend-mode: normal"><path d="M168.86802,167.61676c0,0 48.50265,-25.40185 57.4616,-27.93618c2.91345,-0.82416 5.19277,-9.27723 5.19277,-9.27723l24.99535,37.06776l-52.68168,12.25066l-13.52824,-0.68049z" fill="url(#color-1)" stroke="url(#color-2)" stroke-width="1.5" stroke-linecap="butt"/><path d="M168.86802,167.61676c0,0 48.50265,-25.40185 57.4616,-27.93618c2.91345,-0.82416 5.19277,-9.27723 5.19277,-9.27723l23.47502,34.99076c0,0 -11.30703,-6.97634 -22.0144,-3.4154c-11.63731,3.87021 -43.8851,16.21624 -43.8851,16.21624z" fill="url(#color-3)" stroke="none" stroke-width="1.5" stroke-linecap="butt"/><g fill="none" stroke-width="1.5" stroke-linecap="round"><path d="M227.84464,138.87512l22.37478,27.07857" stroke="url(#color-4)"/><path d="M221.48817,142.81612l23.51895,23.51894" stroke="url(#color-5)"/><path d="M214.87744,145.86724l24.91737,21.23062" stroke="url(#color-6)"/><path d="M209.31267,149.07333l25.19871,19.44867" stroke="url(#color-7)"/><path d="M200.60304,152.62485l29.42669,17.41925" stroke="url(#color-8)"/><path d="M194.00741,157.27561l31.79435,14.37511" stroke="url(#color-9)"/><path d="M222.5885,173.59559l-38.64367,-12.93759" stroke="url(#color-10)"/><path d="M219.12157,174.94854l-43.54812,-10.31625" stroke="url(#color-11)"/><path d="M175.80386,170.64018l38.95937,6.0874" stroke="url(#color-12)"/></g><path d="M173.77757,243.03756l14.85295,-3.47295l47.64198,12.00909l-18.93367,36.89528c0,0 -1.838,-11.47385 -7.22498,-12.84829c-11.74898,-2.99764 -55.429,-15.56833 -55.429,-15.56833z" fill="url(#color-13)" stroke="url(#color-14)" stroke-width="1.5" stroke-linecap="butt"/><path d="M173.21028,242.40175l14.89068,-3.30749l47.50543,12.53837l-14.90075,29.75769c0,0 -4.72348,-12.27537 -13.91029,-15.89937c-10.29513,-4.06121 -48.38462,-9.14563 -48.38462,-9.14563z" fill="url(#color-15)" stroke="#000000" stroke-width="0" stroke-linecap="butt"/><g fill="none" stroke-width="1.5" stroke-linecap="round"><path d="M230.61476,250.7023l-14.3751,27.39727" stroke="url(#color-16)"/><path d="M225.54119,249.18023l-13.69863,25.11416" stroke="url(#color-17)"/><path d="M219.87571,247.82728l-13.27583,25.28328" stroke="url(#color-18)"/><path d="M214.71759,245.96697l-12.68392,24.52224" stroke="url(#color-19)"/><path d="M209.72858,244.52946l-14.37511,24.184" stroke="url(#color-20)"/><path d="M204.57045,242.92283l-15.38982,22.83105" stroke="url(#color-21)"/><path d="M200.17336,242.07724l-19.195,22.3237" stroke="url(#color-22)"/><path d="M196.11451,241.40076l-23.42297,21.81633" stroke="url(#color-23)"/><path d="M192.47845,240.63973l-26.38255,20.54795" stroke="url(#color-24)"/><path d="M187.32033,239.28677l-27.3127,20.71706" stroke="url(#color-25)"/></g><path d="M98.77663,214.06001c0,0 -9.02793,-3.80146 -13.68494,-11.82261c-5.22663,-9.00225 -5.23403,-39.58799 -5.23403,-39.58799l66.3642,33.7577c0,0 -10.51558,10.60994 -10.778,16.92772c-0.26242,6.31778 10.53405,17.35696 10.53405,17.35696l-66.12026,34.77884c0,0 1.90709,-31.09875 7.22738,-40.26231c4.48639,-7.72728 11.6916,-11.1483 11.6916,-11.1483z" fill="url(#color-26)" stroke="url(#color-27)" stroke-width="1.5" stroke-linecap="butt"/><path d="M98.77663,214.06001c0,0 -9.02793,-3.80146 -13.68494,-11.82261c-5.22663,-9.00225 -5.23403,-39.58799 -5.23403,-39.58799l66.3642,33.7577l-7.57595,26.21366c0,0 -12.91812,-9.59784 -19.97496,-11.11309c-6.08993,-1.30763 -19.89432,2.55233 -19.89432,2.55233z" fill="url(#color-28)" stroke="none" stroke-width="1.5" stroke-linecap="butt"/><g fill="none" stroke-width="1.5" stroke-linecap="round"><path d="M139.92998,198.14327l-59.15697,-25.87209" stroke="url(#color-29)"/><path d="M81.64508,182.00955l54.50582,18.89535" stroke="url(#color-30)"/><path d="M133.67998,204.53862l-50.58139,-13.51744" stroke="url(#color-31)"/><path d="M132.66254,208.02699l-46.22093,-6.97674" stroke="url(#color-32)"/><path d="M131.9358,212.67815l-34.44768,1.01744" stroke="url(#color-33)"/><path d="M132.80789,216.60257l-44.91279,8.43024" stroke="url(#color-34)"/><path d="M133.38929,220.96303l-47.96512,13.95349" stroke="url(#color-35)"/><path d="M83.53463,245.67234l51.30814,-21.36628" stroke="url(#color-36)"/><path d="M139.34859,227.50373l-56.97675,26.45349" stroke="url(#color-37)"/></g><path d="M365.34445,211.38176c0,4.92028 -7.4448,10.61147 -12.81825,13.35493c-28.36775,14.48343 -52.5085,28.76491 -103.35241,28.76491c-12.53839,0 -27.22686,-5.39682 -44.22461,-9.86104c-15.606,-4.0987 -33.68101,-7.1874 -42.5467,-9.42541c-30.79534,-7.77383 -29.17744,-9.0437 -29.17744,-23.95673c0,-15.60976 21.22641,-13.13097 54.47061,-20.73394c17.61861,-4.02938 39.29616,-22.50925 61.47814,-22.50925c25.02859,0 42.97779,10.56077 61.92643,15.58992c18.63804,4.94672 35.36037,11.90982 45.51216,17.92728c5.9339,3.51731 5.39873,1.87151 5.39873,7.23821z" fill="url(#color-38)" stroke="url(#color-39)" stroke-width="2" stroke-linecap="butt"/><path d="M317.76525,241.34487c0,0 -16.89863,-1.62171 -20.63467,-6.06037c-4.98917,-5.92746 -1.77562,-13.23034 -3.72077,-20.84184c-2.56518,-10.03772 -6.21087,-13.52591 -6.22611,-18.67872c2.35139,-3.79411 12.26773,-6.97759 12.26773,-6.97759" fill="none" stroke="url(#color-40)" stroke-width="1" stroke-linecap="round"/><path d="M365.34445,211.38176c0,2.40149 -52.47571,-22.73906 -109.08984,-21.68041c-24.12145,0.45106 -52.61369,13.92999 -73.59151,18.88426c-30.66313,7.24162 -48.52847,6.31288 -48.52847,1.77982c0,-15.60976 19.94231,-12.43541 53.18651,-20.03838c17.61861,-4.02938 39.67069,-22.18823 61.85267,-22.18823c25.02859,0 43.0848,10.34675 62.03344,15.3759c18.63804,4.94672 34.82532,11.85632 44.97711,17.87378c5.9339,3.51731 5.82677,1.01543 5.82677,6.38213z" fill="url(#color-41)" stroke="none" stroke-width="2" stroke-linecap="butt"/><path d="M338.20123,219.20706c-6.17059,-0.20924 -3.55018,-1.29559 5.51842,-5.31973c4.66266,-2.06903 18.29323,-4.79131 18.43371,-4.84948c5.50283,-2.4917 5.1451,0.4538 5.2543,1.54532c0.37931,3.79142 -8.18732,4.60321 -14.4518,6.18683c-5.87369,1.48483 -8.58403,2.6463 -14.75462,2.43706z" fill="url(#color-42)" stroke="url(#color-43)" stroke-width="1" stroke-linecap="butt"/><path d="M333.93805,216.31667c2.18651,-2.62504 14.72138,-10.33218 27.11842,-14.71533c2.61962,-0.92621 3.29534,0.27632 4.55973,1.15061c1.47814,1.02209 2.68891,4.61837 -2.47301,5.4737c-0.10972,0.01818 -10.62013,3.07976 -18.0886,6.71291c-1.71249,0.83307 -4.12314,6.40177 -6.4154,6.88999c-3.29077,-1.36785 -4.65326,-3.59865 -4.70113,-5.51189z" fill="url(#color-44)" stroke="url(#color-45)" stroke-width="1" stroke-linecap="butt"/><path d="M314.13124,227.80071c0,0 -8.97285,-5.2375 -9.63581,-16.55836c-0.49885,-8.51843 4.87575,-15.1212 4.87575,-15.1212" fill="none" stroke="url(#color-46)" stroke-width="1" stroke-linecap="round"/><path d="M334.42931,216.19509c2.22315,-2.59409 14.64677,-10.18684 27.10413,-14.39551c2.63236,-0.88934 3.447,0.63428 4.44962,1.61975c-0.40294,0.96818 -7.59189,2.56621 -14.7587,5.60617c-4.8028,2.03721 -10.57444,7.20597 -13.79144,8.68335c-2.45675,1.12823 -2.99867,-1.06487 -3.0036,-1.51374z" fill="url(#color-47)" stroke="none" stroke-width="1" stroke-linecap="butt"/><path d="M290.78528,237.32963c-2.29924,-2.95064 -5.31955,-7.12957 -6.20018,-9.94434c-1.56462,-5.00093 -0.83132,-11.05454 -0.83132,-11.05454" fill="none" stroke="url(#color-48)" stroke-width="1.5" stroke-linecap="round"/><path d="M287.89279,233.60158c0,0 -25.19274,3.03347 -30.15817,0.47423c-3.33619,-1.71951 -15.28944,-20.03233 -12.20044,-22.41109c3.63499,-2.79921 37.98059,9.34081 37.98059,9.34081c0,0 0.41635,4.68961 0.85453,6.65555c0.51515,2.31122 3.52348,5.94049 3.52348,5.94049z" data-paper-data="{&quot;index&quot;:null}" fill="url(#color-49)" stroke="url(#color-50)" stroke-width="1.5" stroke-linecap="round"/><path d="M252.6546,227.49592c0,0 -4.10443,-5.17301 -6.33942,-9.67812c-2.01144,-4.05451 -1.85017,-5.58663 -1.281,-6.02493c3.63499,-2.79921 37.9229,9.59713 37.9229,9.59713c0,0 0.47143,3.9013 0.65315,4.92184c0.16573,0.93073 1.31074,3.37022 1.31074,3.37022c0,0 -9.44055,-2.08549 -15.38893,-2.95025c-5.98034,-0.86942 -16.87745,0.76413 -16.87745,0.76413z" data-paper-data="{&quot;index&quot;:null}" fill="url(#color-51)" stroke="none" stroke-width="1.5" stroke-linecap="round"/><g stroke-linecap="butt"><path d="M336.19613,201.84278c0,4.31898 -3.2878,7.82021 -7.34348,7.82021c-4.05568,0 -7.34348,-3.50123 -7.34348,-7.82021c0,-4.31898 3.28778,-7.82021 7.34348,-7.82021c4.05568,0 7.34348,3.50123 7.34348,7.82021z" fill="url(#color-52)" stroke="url(#color-53)" stroke-width="1.5"/><path d="M325.18928,201.84278c0,-2.34301 1.70127,-4.24239 3.7999,-4.24239c2.09863,0 3.7999,1.89938 3.7999,4.24239c0,2.34301 -1.70127,4.24239 -3.7999,4.24239c-2.09863,0 -3.7999,-1.89938 -3.7999,-4.24239z" fill="url(#color-54)" stroke="url(#color-55)" stroke-width="1"/><path d="M332.78405,198.81704c0,1.42942 -1.99597,2.58819 -4.45814,2.58819c-2.46217,0 -4.45815,-1.15877 -4.45815,-2.58819c0,-1.42942 1.99598,-2.58819 4.45815,-2.58819c2.46217,0 4.45814,1.15878 4.45814,2.58819z" fill="url(#color-56)" stroke="none" stroke-width="1"/><path d="M326.23693,198.19133c0,-0.65973 0.47904,-1.19455 1.06996,-1.19455c0.59092,0 1.06996,0.53482 1.06996,1.19455c0,0.65973 -0.47903,1.19455 -1.06996,1.19455c-0.59092,0 -1.06996,-0.53481 -1.06996,-1.19455z" fill="url(#color-57)" stroke="none" stroke-width="0"/></g><g fill="none" stroke-width="1" stroke-linecap="round"><path d="M283.57884,223.03527l-37.39523,-9.02643" stroke="url(#color-58)"/><path d="M283.68629,225.29188l-34.70879,-5.80271" stroke="url(#color-59)"/><path d="M253.38326,225.18442l30.41049,2.36407" stroke="url(#color-60)"/><path d="M254.35038,229.16035l30.84032,0.32237" stroke="url(#color-61)"/><path d="M257.89648,232.27663l27.72405,-0.64475" stroke="url(#color-62)"/></g><path d="M283.80624,249.89984l-61.73812,27.32588l9.07361,-22.51267c0,0 11.09186,-5.33582 20.01071,-6.15095c3.17902,-0.29054 13.67903,0.79404 17.84872,1.22932c7.14474,0.74585 14.80509,0.10842 14.80509,0.10842z" fill="url(#color-63)" stroke="url(#color-64)" stroke-width="1.5" stroke-linecap="round"/><path d="M283.80624,249.89984l-20.09136,8.89263c0,0 -8.1423,-2.06816 -14.01011,-1.28549c-6.17072,0.82307 -22.15124,6.10882 -22.15124,6.10882l3.58821,-8.90275c0,0 11.09186,-5.33582 20.01071,-6.15095c3.17902,-0.29054 13.67903,0.79404 17.84872,1.22932c7.14474,0.74585 14.80509,0.10842 14.80509,0.10842z" fill="url(#color-65)" stroke="none" stroke-width="1.5" stroke-linecap="round"/><g fill="none" stroke-width="1" stroke-linecap="round"><path d="M278.81872,250.20899l-51.52735,20.81235" stroke="url(#color-66)"/><path d="M273.53172,250.20899l-46.65995,16.28063" stroke="url(#color-67)"/><path d="M266.5663,249.62155l-36.67338,11.83283" stroke="url(#color-68)"/><path d="M260.1044,249.20194l-29.37227,8.05639" stroke="url(#color-69)"/></g></g></g></svg>