<svg xmlns="http://www.w3.org/2000/svg" xmlns:xlink="http://www.w3.org/1999/xlink" xmlns:inkscape="http://www.inkscape.org/namespaces/inkscape" version="1.1" width="1430" height="2629" viewBox="0 0 1430 2629">
<defs>
<clipPath id="clip_0">
<path d="M382.551 344.164H1389.2V2540.03H382.551Z"/>
</clipPath>
</defs>
<g clip-path="url(#clip_0)">
<path transform="matrix(1,0,0,1,937.7637,2300.3265)" d="M0 0C-.0391 .0078-.0781 .0117-.1211 .0195-.0781 .0117-.0391 .0039 0 0Z" fill="#303130"/>
<path transform="matrix(1,0,0,1,937.873,2300.3343)" d="M0 0C-.0391 .0195-.0742 .0352-.1133 .0508-.0742 .0312-.0391 .0156 0 0Z" fill="#303130"/>
<path transform="matrix(1,0,0,1,938.3142,2301.8458)" d="M0 0C.0143 .0278 .0284 .0554 .0426 .0833 .0507 .0999 .0588 .1165 .0667 .1331 .0444 .0886 .0222 .0442 0 0Z" fill="#303130"/>
<path transform="matrix(1,0,0,1,671.8633,1903.6172)" d="M0 0C-.9453-.8516-1.8242-1.7734-2.7383-2.6562-7.2578-7.2148-12.6562-10.918-18.7422-13.293-21.6016-14.3984-24.4961-15.4141-27.3281-16.5859-27.8711-16.7695-28.3242-17.1406-28.6328-17.6016-32.1055-18.3516-35.6758-18.7227-39.0234-19.957-39.1523-20.0039-39.2734-20.0625-39.3867-20.1328-39.3789-20.1211-39.3789-20.1055-39.375-20.0898-39.3242-19.8242-39.3516-19.5313-39.3594-19.2617-39.4336-16.9141-39.4609-14.793-39.1016-12.3828-38.6523-9.5977-38.0078-6.8125-37.3125-4.043-31.457-3.375-25.6289-2.0547-19.9922-.3828-18.0781-.4727-16.2031-.2656-15.5312 1.3516-15.4102 1.6367-15.3711 1.9531-15.3984 2.2656-15.0391 1.0352-14.3672-.1758-13.0703-.5625-11.4102-1.0234-10.1328-.043-9.5859 1.2578-9.4062 1.1523-9.1953 1.0859-8.957 1.0742-8.2773-1.5508-5.3086 .8711-3.543 1.6445-2.457 .9336-1.1758 .3398 0 0ZM-1.3711 11.1836C-1.4023 10.9219-1.3906 10.6562-1.3438 10.3984-2.668 9.4609-3.9375 8.4375-5.1172 7.3203-5.5273 6.9102-5.6875 6.4336-5.6641 5.9766-5.7812 5.8711-5.8828 5.7461-5.9648 5.6094-6.1758 5.2109-6.1914 4.7891-6.0586 4.3594-7.1016 4.3398-8.2266 3.8828-9.2266 3.7891-9.3164 3.7734-9.4023 3.75-9.4805 3.7187-9.7617 4.4883-10.3789 5.1367-11.4102 5.418-11.6914 5.4648-12.0078 5.4883-12.332 5.4883-12.9844 5.4883-13.6719 5.3984-14.2266 5.25-15.1406 4.8633-15.6914 3.875-15.5508 2.9062-15.6367 3.1211-15.75 3.3203-15.8906 3.4883-16.1836 3.8672-16.5352 4.0664-16.9219 4.1719-15.9141 5.8164-18.5625 6.9766-19.582 7.9297-21.7031 9.3906-23.543 11.2891-25.8789 12.4297-26.6406 14.4102-26.7148 17.0781-28.0273 18.8008-25.082 22.2344-22.2734 30.4102-21.3516 32.9766-18.6172 36.0625-16.8945 42.8672-15.8633 50.1641-15.8672 46.4102-15.8789 42.6602-15.7891 38.9063-17.0156 34.1953-17.8984 29.3906-16.4961 24.7109-15.2266 20.7188-12.3359 17.6484-9.4492 14.7422-8.3008 13.4531-6.8633 12.4297-5.2266 11.8594-4.125 11.5859-2.5352 10.9375-1.3711 11.1836ZM15.793 6.3008C11.6641 5.4727 7.5586 4.5391 3.4766 3.5234 2.957 3.9766 2.2148 4.1719 1.375 3.8398 .4414 4.2266-.4219 4.7773-1.3086 5.2656 .043 6.0898 1.3125 7.0469 2.5937 7.9727 6.9492 7.0547 11.3633 6.5508 15.793 6.3008ZM37.4102 45.3164C38.5156 45.7773 38.9922 46.9375 38.7461 48.0664 38.1523 50.8008 37.5156 53.5273 36.8008 56.2344 34.8984 63.2344 32.9805 70.2734 32.3945 77.5273 31.9297 83.7031 32.5547 89.7109 34.1289 95.7305 34.5742 97.4102 36.0938 99.5664 34.3008 100.957 33.918 101.2656 33.4727 101.4023 33.0273 101.4023 31.7656 101.4023 30.4961 100.3242 30.6289 98.9688 29.5859 96.4766 28.8047 93.8906 28.1484 91.2734 26.9531 86.707 26.5586 81.918 26.75 77.1797 26.6445 77.293 26.5469 77.3984 26.4531 77.5039 23.2617 81.0742 19.5859 84.1719 15.9062 87.2266 12.1992 90.3203 8.2656 93.1172 4.5547 96.207 3.7852 96.8867 2.9336 97.7227 1.8672 97.8477 1.7852 97.8555 1.7031 97.8594 1.625 97.8594 1.0039 97.8594 .5078 97.625 .1523 97.2656-2.0977 100.8164-5.0273 103.9805-8.7539 106.5781-9.1836 106.9336-9.7148 107.1172-10.2578 107.1484-8.8125 110.2031-6.8398 112.9609-4.9141 115.7227 1.1367 124.2617 7.3203 132.7187 13.0156 141.5 14.3477 143.5312 15.6211 145.5977 16.8477 147.6914 17.8047 147.832 18.2969 148.8945 18.0273 149.7344 18.2109 150.0547 18.3945 150.375 18.5742 150.6992 19.0547 151.457 18.8438 152.5039 18.082 152.9922 17.8086 153.168 17.5078 153.25 17.207 153.25 16.6602 153.25 16.1211 152.9805 15.7891 152.5 15.6094 152.2383 15.4297 151.9805 15.2539 151.7187 11.9102 153.957 9.5312 157.4687 7.7695 161.0625 6.4727 163.9922 6.0625 167.1211 4.9727 170.2344 4.7617 170.8711 4.2187 171.3242 3.5937 171.5078 3.3164 173.1094 2.9648 174.6914 2.4062 176.2109 2.3125 176.4102 2.1914 176.5781 2.043 176.7031 2.1133 177.4922 1.707 178.2617 .9414 178.5859 .7617 178.6914 .5703 178.7422 .375 178.7422-2.5312 178.7422-6.9609 167.8711-8.1914 165.7617-14.7305 151.8633-19.1172 137.0937-25.0195 122.9531-27.6172 127.8398-30.4375 132.9922-34.4766 136.8008-34.9102 137.5234-35.3516 138.2383-35.7969 138.9531-37.2695 141.2656-38.6563 143.6523-40.3945 145.7812-41.0313 146.5977-41.7031 147.4883-42.7773 147.6562-43.2305 148.0859-43.8438 148.2969-44.457 148.2969-45.5977 148.2969-46.7305 147.5664-46.8242 146.1055-46.8008 142.5586-47.2266 139.043-47.5391 135.5156-50.4258 127.0117-48.3516 107.1992-48.4648 102.625-48.0664 93.4258-47.9922 84.2148-47.8867 75.0117-47.8438 71.0742-47.7266 67.0781-46.8867 63.2305-47.5664 61.2188-46.8945 58.1797-47.0781 56.3047-46.6953 47.7227-46.0703 39.0156-43.4141 30.7891-42.7695 28.9258-39.0313 18.7695-35.9453 16.875-37.2109 14.0703-37.9492 11.1094-38.4883 8.0977-39.0547 7.6445-39.4414 6.9258-39.582 6.1797-40.3711 3.875-41.0039 1.5234-41.5234-.8516-42.7383-7.2852-43.0234-14.0352-40.6563-20.25-40.6563-20.25-40.6563-20.2461-40.6523-20.2461-40.5195-20.5547-40.1875-20.668-39.8945-20.6016-40.1914-20.9961-40.332-21.5117-40.2305-22.0313-39.7617-24.6602-34.0352-23.3711-32.1367-23.0352-30.3867-22.6992-28.7109-22.0859-27.0273-21.5039-26.5977-21.5938-26.1367-21.5781-25.6875-21.4531-23.4063-20.8164-21.1328-20.168-18.8984-19.3789-9.9883-16.5039-2.6367-10.4766 3.2305-3.3164 3.4844-3.25 3.7266-3.1289 3.9492-2.9609 3.9492-2.9609 3.9531-2.9609 3.9531-2.957 3.9492-2.9492 3.9453-2.9453 3.9414-2.9414 4.7461-2.4766 5.0781-1.6406 5.0273-.8086 10.9023-.2461 16.7109 .8633 22.4414 2.2695 25.9883 3.1055 29.5 4.0586 33.0391 4.9336 35.0078 5.2109 37.5156 6.3359 36.2695 8.7148 35.918 9.3594 35.2344 9.707 34.5547 9.707 34.4961 9.707 34.4336 9.7031 34.375 9.6953 33.9531 9.9883 33.4258 9.9687 32.8984 9.9492 32.6445 9.9414 32.3906 9.9336 32.1484 9.9609 24.4492 10.5469 16.9102 11.9297 9.2695 12.7852 10.2227 14.9375 8.2539 18.0039 5.3711 16.9336 2.1641 18.4023-.2461 21.0859-3.0039 23.2109-3.3633 23.4961-3.7812 23.6719-4.2109 23.7461-4.6797 25.5078-4.9805 27.3359-5.3711 29.0977-4.6289 32.5-2.793 35.6172-1.4531 38.8242 .5664 43.2969 2.2422 47.9063 3.6367 52.625 7.125 65.25 8.0195 80.4727 2.6367 92.6094 7.6367 87.5703 12.7617 82.6563 17.7539 77.6016 19.2695 76.0742 20.8398 74.6094 22.4844 73.2227 23.8164 72.0742 25.6016 70.2734 27.3359 70.8789 28.2422 64.4883 29.9727 58.2539 32.1719 52.1914 32.8828 50.3008 33.6172 48.4258 34.3789 46.5547 34.8555 45.3867 36.2578 44.832 37.4102 45.3164Z" fill="#cfcfcf"/>
<path transform="matrix(1,0,0,1,718.7812,1867.1641)" d="M0 0C1.8242 29.6875 2.3008 59.5898 .832 89.3242-.3633 115.5547-3.2461 141.6836-6.4258 167.7383-7.8906 180.0352-9.3477 192.332-10.5898 204.6523-10.6992 206.1406-10.8125 207.6289-10.9258 209.1172-11.2617 211.4219-10.3906 214.7187-12.8633 216.0195-13.2109 216.207-13.5586 216.293-13.8906 216.293-15.6289 216.293-16.9414 213.9922-15.4297 212.5547-14.7031 179.668-9.4687 147.0625-7.3008 114.2539-4.1797 76.3086-4.7773 38.2383-4.2578 .2031-4.1797-2.5117-.2617-2.5078 0 0Z" fill="#cfcfcf"/>
<path transform="matrix(1,0,0,1,1035.8984,2252.6759)" d="M0 0C4.8125-3.2305 3.7266-8.9766 3.7227-13.9687-9.6914-7.1953-22.9609-.0234-35.0039 9.0156-30.8438 8.957-26.7188 9.4258-22.6328 10.1797-22.3164 9.4141-21.7227 8.7695-20.9219 8.4648-16.4141 6.7031-11.6055 5.9805-7.0117 4.4922-4.3203 3.6211-2.1445 1.7695 0 0ZM31.9297 33.1719C32.8789 32.5508 33.8398 31.9453 34.8086 31.3555 32.1797 31.2539 29.0469 30.1914 27.1016 30.1289 20.6758 28.9727 14.2031 27.7773 7.875 26.4609-5.668 24.2305-18.2852 19.082-31.9141 17.7383-48.5625 16.4414-63.418 25.5391-77.9609 32.3477-82.3242 34.5391-86.168 36.793-90.3516 38.6016-86.8281 40.8945-83.4883 43.7852-83.1328 47.2578-83.1094 48.0938-83.5078 48.9414-84.1758 49.4453-85.2578 50.2773-86.6172 49.7813-87.8516 50.1289-88.5586 50.1797-89.543 50.4805-90.6211 50.8086-90.6172 50.8164-90.6094 50.8281-90.6016 50.8359-88.4297 53.2539-85.8828 55.2656-83.2422 57.1563-71.5391 64.1953-58.3594 70.6211-44.4531 70.3672-31.3359 68.9414-19.3906 62.4883-7.5781 57.0195 6.1641 50.0469 19.1328 41.7148 31.9297 33.1719ZM74.9922 32.75C78.3438 35.7734 77.375 40.7227 73.5313 42.8008 69.6641 44.8906 65.0391 44.7344 60.7578 44.7578 55.3398 44.4063 49.5078 44.2695 44.6172 41.7031 42.8711 40.6641 40.6875 39.1328 41.3633 36.8008 41.7539 35.3828 43.0195 34.5156 44.4492 34.4492 51.2578 34.4844 58 36.1953 64.8438 35.7852 61.6797 33.2813 58.7344 30.2773 54.8711 28.8906 52.6133 28.2578 49.9453 28.125 49.25 25.3984 48.5469 23.293 50.418 21.2891 51.1094 19.5781 54.3398 13.1992 56.793 6.4414 60.2305 .1797 53.8086 4.8633 47.793 10.0508 41.4141 14.7852 38 17.4297 34.7578 20.3789 31.125 22.7188 33.1992 23.3906 35.25 24.125 37.2852 24.8984 38.8086 25.4609 39.6133 27.2617 39.2539 28.793 41.4961 28.1484 43.625 31.2188 41.7031 33.0508 40.4766 34.2656 39.25 35.4727 37.9922 36.6523 23.4375 50.0664 6.3828 60.543-11.4922 68.8789-12.3086 69.2344-13.1289 69.5898-13.9531 69.9531-9.6523 72.3516-4.8867 75.2539-.75 77.3477 1.9922 78.6406 4.9414 80.1992 8.0586 79.7656 7.0195 75.793 9.9102 72.0938 11.9766 68.9531 15.0898 64.6914 18.7813 60.8477 23.0156 57.6914 25.4961 55.7773 28.1914 54.082 30.3906 51.8359 31.832 50.1016 32.7813 47.9766 33.3789 45.8164 33.5703 44.5586 33.6133 43.2773 34.0039 42.0547 34.375 40.7539 36.1133 40.2227 37.0781 41.2422 41.7188 45.9102 39.0859 53.3633 35.1445 57.5977 33.1055 59.6914 30.6758 61.375 28.3984 63.1992 23.1836 67.3203 18.2344 72.168 15.2734 78.1914 17.8008 84.7266 12.5156 87.4766 6.7578 87.4961 1.0664 87.1523-3.6914 83.5508-8.1328 80.2969-11.6055 77.4922-15.332 74.9336-18.707 72.0195-20.1055 72.6211-21.5078 73.2109-22.9219 73.7813-22.707 73.9648-22.4922 74.1406-22.2734 74.3008-20.8438 75.5352-19.3633 76.8086-18.3242 78.4023-16.0469 81.5781-18.0703 85.3047-18.5078 88.7109-18.2266 93.9805-18.0391 99.5273-25.1289 98.6914-29.7578 97.9922-34.0313 95.5039-38.2578 93.7148-41.7539 92.0117-44.8672 90.2969-47.9453 87.9961-50.3984 85.9766-53.2891 84.2227-54.9922 81.4805-55.3594 80.8242-55.5195 79.9258-54.9766 79.3242-54.4805 78.3711-53.4336 78.8477-53.5195 79.8398-51.8164 81.3945-49.3633 81.7344-47.2891 82.6289-40.2969 85.2969-33.2344 87.7852-26.1758 90.2383-26.1836 88.9023-26.1484 87.5742-25.8086 86.2539-25.4297 84.7891-24.9063 83.375-24.5117 81.918-26.0977 80-28.0977 78.375-29.4023 76.2461-29.4141 76.2305-29.4219 76.2188-29.4336 76.2031-35.0469 78.082-40.8008 79.375-46.7344 79.375-47.3555 79.375-47.9766 79.3594-48.6016 79.332-63.3281 78.1367-85.3516 69.4727-94.6016 56.9219-94.9375 56.9609-95.2969 56.8281-95.4922 56.5-96.5078 54.5078-97.8008 52.6211-98.6914 50.5898-99.4609 49.7344-99.1875 48.3125-97.9336 48.5-98.0352 48.3008-98.1406 48.1016-98.2422 47.9023-98.1797 47.8398-98.1094 47.7773-98.0391 47.7188-98 47.6914-97.9688 47.668-97.9375 47.6406-97.3359 47.6406-96.7422 47.6563-96.1484 47.6875-96.1211 47.6992-96.0938 47.7109-96.0664 47.7227-94.8242 47.0195-93.0625 46.6953-91.9609 46.3516-93.6719 44.7695-95.3047 43.082-96.8516 41.3398-97.7188 40.3438-98.8359 39.1445-98.9063 37.7734-99 37.7539-99.0898 37.7383-99.1836 37.7227-99.3125 36.2227-98.4531 34.6602-96.5586 34.3789-96.2891 34.3555-95.6094 34.1172-95.6094 34.1133-77.9922 25.4922-61.6602 12.0664-41.7578 9.5039-41.7461 9.2422-41.6914 8.9648-41.5859 8.6758-40.9805 7.4062-39.5938 6.8047-38.5703 5.9258-34.3555 2.707-30.1328-.5-25.7813-3.5273-16.5352-10.2305-6.3906-15.5234 3.8828-20.4258 5.8789-21.2734 8.3437-23.1602 10.2891-21.2305 11.1523-20.3711 11.3359-19.1367 10.918-18.0195 10.6797-17.6055 10.4258-17.1875 10.3203-16.7266 10.0234-12.582 11.4922-8.5312 11.0781-4.3555 10.7383 .6055 7.3281 4.5391 3.5273 7.4219-.1172 10.7187-4.7187 12.4102-9.4727 13.3242 1.4141 16.1953 12.5234 18.1016 23.4883 20.6016 25.0039 20.9453 26.5039 21.3359 27.9961 21.7656 29.6563 20.1094 31.1992 18.3359 32.7695 16.5977 38.2188 10.0156 44.6602 4.3672 51.0156-1.3164 54.4492-4.2695 58.5742-7.6055 62.4336-9.6836 63.582-10.1055 64.2422-11.1953 65.3047-11.7578 66.4922-12.4336 67.8633-12.7617 69.125-12.0195 73.2656-9.2773 68.4102-.832 66.9414 2.6367 63.9688 8.832 61.8984 15.4219 59.0859 21.6914 65.082 24.168 70.0234 28.6758 74.9922 32.75Z" fill="#cfcfcf"/>
<path transform="matrix(1,0,0,1,1004.707,2289.3555)" d="M0 0C1.293 .9688 .8633 2.7695 .1992 3.9609-1.8789 6.918-2.8633 10.3594-3.6914 13.8359-4.707 17.4648-6.625 22.8008-11.2812 22.1563-14.1992 22.1406-17.1172 22.1797-20.0156 21.7891-21.3438 21.7695-22.3242 20.4219-22.0859 19.1563-21.8594 17.9258-20.6953 17.2031-19.4922 17.3672-16.6172 17.7695-13.7812 18.4063-10.9023 18.793-8.9648 14.5586-7.5664 9.8555-5.7109 5.6758-10.0664 7.8867-14.4297 10.082-18.8672 12.1133-19.6875 12.5273-20.4648 13.1758-21.457 12.9336-23.3867 12.6289-24.168 9.9336-22.6758 8.6641-21.1953 7.418-19.1641 7.1758-17.4453 6.3672-13.0937 4.5898-8.6367 2.6484-4.3867 .7852-3.6914 .4727-3.0234 .1211-2.3555-.2461-1.582-.6758-.6797-.5117 0 0Z" fill="#cfcfcf"/>
<path transform="matrix(1,0,0,1,980.4258,2292.6094)" d="M0 0C.5352 5.9492-2.9961 13-7.668 16.6289-9.4023 17.6836-12.3281 19.8945-13.8008 17.3945-15.1406 14.3242-10.1914 13.125-8.7578 11.0508-6.3164 8.0547-3.4414 4.1328-3.9922 .0937-7.5977-2.7734-1.2148-6.582 0 0Z" fill="#cfcfcf"/>
<path transform="matrix(1,0,0,1,962.9766,2290.0899)" d="M0 0C4.2227-.9805 6.0195 4.4297 3.4375 7.2305 3.4336 7.3164 3.4219 7.3984 3.4062 7.4844 3.2031 8.6055 2.082 9.4883 .9375 9.3086-.375 10.1836-2.1445 9.9258-3.1133 8.6328-3.9141 7.6094-3.9219 6.2656-3.5117 5.082-3.7187 2.8828-2.1445 .5664 0 0Z" fill="#cfcfcf"/>
<path transform="matrix(1,0,0,1,761.5039,2489.043)" d="M0 0C.0312-.5 .0156-1.0156 .1758-1.4844-1.9922-3.2852-4.2578-4.957-6.4805-6.6914-9.9805-9.418-13.1055-12.5547-16.0781-15.832-16.5391-3.2969-15.8125 9.332-16.8984 21.8633-16.8711 22.1133-16.8945 22.3867-16.9688 22.6758-16.9883 22.8945-17.0078 23.1094-17.0313 23.3242-14.3164 29.2969-10.1211 34.1133-6.3594 39.3789-6.3359 39.4102-6.3164 39.4375-6.3008 39.4688-5.6289 38.9258-4.8125 38.5859-3.9961 38.5664-3.793 37.5195-3.5937 36.4688-3.4023 35.418-3.4922 35.1289-3.543 34.8203-3.5586 34.5039-3.7266 31.5586-3.5391 28.6172-3.2695 25.6836-2.6055 17.0703-.7695 8.5898 0 0ZM32.4922 2.6523C32.4922 2.5078 32.4922 2.3711 32.4961 2.2344 25.957 2.9414 19.4805 4.5391 12.8633 4.5391 12.2578 4.5391 11.6484 4.5234 11.0391 4.4961 9.0078 4.2617 5.625 4.3203 3.7344 3.043 3.6562 7.4883 3.3672 11.9258 3.2344 16.3711 2.9766 22.5508 3.2305 28.7734 2.3633 34.9102 2.2617 35.8438 1.7031 36.5781 .9688 37.0117 .9531 38.1641 .9297 39.3125 .9063 40.4648 9.0937 40.2383 17.2852 40.2188 25.4727 40.6836 26.4922 40.6836 27.4531 41.0977 28.1719 41.7656 28.9961 41.8164 29.8164 41.8906 30.6367 41.9766 29.7852 39.6992 30.8945 36.2227 30.9922 33.8984 31.6484 23.4922 31.8359 13.0586 32.4922 2.6523ZM38.043 22.5781C37.8242 26.6367 40.1563 41 35.668 43.7305 36.918 45.6914 35.8086 48.918 32.9688 48.918 32.8047 48.918 32.6367 48.9102 32.4609 48.8867 30.832 48.6094 29.2031 48.2891 27.5625 48.0391 26.9922 48.4102 26.3242 48.6289 25.6211 48.6289 25.5703 48.6289 25.5234 48.6289 25.4727 48.6211 18.9336 48.4648 12.4297 47.543 5.918 47.0742 4.1562 46.957 2.5234 46.8555 .7852 46.7461 .7812 47.0156 .7773 47.2891 .7734 47.5586 .7187 49.2891-.6328 50.7383-2.4023 50.7383-4.2461 50.7383-5.8828 49.0039-5.5508 47.1289-5.4922 46.7422-5.4336 46.3516-5.3711 45.9648-5.8203 45.793-6.25 45.5664-6.6562 45.2773-7.2344 44.7656-7.5937 44.2031-7.7812 43.6289-8.043 43.7109-8.3203 43.7578-8.5977 43.7578-9.418 43.7578-10.2539 43.3672-10.8633 42.4141-13.5312 37.9492-16.2461 33.5273-18.9023 29.0586-19.2695 28.3477-19.707 27.6211-20.1094 26.8789-21.3828 26.7656-22.5742 25.8555-22.5586 24.2305-21.6406 9.9141-20.5352-4.2109-19.8555-18.4883-19.5313-22.375-16.7773-22.5859-15.6836-21.3672-15.3789-22.3164-14.4766-23.082-13.4414-23.0273-7.918-22.6836-2.3867-22.7188 3.1484-22.75 5.9141-22.7617 8.6836-22.7773 11.4492-22.7461 16.2539-22.6797 21.0508-22.5352 25.8477-22.2969 25.918-22.8008 26.0898-23.293 26.4023-23.7539 27.9922-25.7695 31.2734-23.9961 30.4063-21.5625 30.4297-21.4922 30.457-21.418 30.4844-21.3477 30.4844-21.3477 30.4883-21.3438 30.4883-21.3398 30.5234-21.2656 30.5508-21.1836 30.5742-21.1016V-21.0977C32.3164-16.3164 35.0508-11.7695 37.2031-7.207 38.0352-5.2148 36.3906-3.6758 34.75-3.6758 33.8594-3.6758 32.9727-4.1289 32.4844-5.2148 30.9219-8.7148 29.375-12.2266 27.8047-15.7227 27.4297-16.7617 26.8086-17.957 26.3594-19.1719 17.0039-18.6211 7.6641-18.1055-1.707-17.957-4.9609-17.9883-8.2187-18.0742-11.4687-18.2227-10.2539-16.8555-9.0352-15.5078-7.7852-14.1758-3.582-9.8828 1.1328-6.1094 5.7344-2.2617 8.6875-2.3477 11.6484-2.2891 14.6094-2.2344 20.4531-2.125 26.3008-2.0156 32.1211-2.9727 32.7852-3.1211 33.5742-3.1523 34.3438-3.0547 36.8008-4.8398 40.4883-1.1992 37.3398 1.1523 37.2344 8.293 37.8633 15.4375 38.043 22.5781Z" fill="#cfcfcf"/>
<path transform="matrix(1,0,0,1,1369.8516,2261.5196)" d="M0 0C.9844 1.2891 1.0664 2.6758 .6055 3.8437 .6055 3.8633 .6094 3.8867 .6094 3.9062 .6719 5.1953-.0703 6.4805-1.6641 6.7305-3.375 9.0234-5.6445 10.8711-7.6953 12.7891-8.9844 13.8672-9.8398 14.918-10.9492 16.0625-13.2148 18.0742-15.8867 19.582-18.0977 21.6406-19.6055 23.0117-21.082 24.418-22.5352 25.8438-22.6758 26.0234-22.8398 26.1953-23.0195 26.3516-23.2891 27.207-23.9023 27.8867-24.9375 27.8867-24.9688 27.8867-25 27.8867-25.0313 27.8867-26.3828 27.7969-27.7695 27.1992-28.7617 26.2344-29.4375 25.957-30.0625 25.4414-30.6094 24.6172-31.9375 22.0664-30.5 20.0938-28.5273 18.4961-28.5195 18.4922-28.5117 18.4883-28.5078 18.4805-28.0781 18.0742-27.5039 17.7344-27.1875 17.4141-26.375 16.4648-25.4766 15.3398-24.6523 14.4883-21.5391 11.2305-18.2891 8.0977-15.0352 4.9766-14.0312 4.0352-13.0937 3.2227-12.1172 2.4375-12.707 1.707-13.2969 .9805-13.9219 .293-17.3555-1.918-19.5781-5.7148-22.168-8.8242-24.1523-11.6367-26.6875-14.1133-28.3789-17.1133-28.375-17.1133-28.3711-17.1133-28.3672-17.1133-28.7813-18.0156-28.4141-18.9375-27.7422-19.4922-27.1875-21.1211-25.4336-22.3711-23.1172-21.1719-18.6289-18.7969-15.25-14.8789-11.5-11.5469-7.4883-7.8789-3.4297-4.2305 0 0Z" fill="#cfcfcf"/>
<path transform="matrix(1,0,0,1,1327.9609,2294.9337)" d="M0 0C6.3789 2.0859 7.3125 10.7734 3.6211 15.6562 2.3633 17.3867 .6719 18.8125-1.3516 19.5508-2.8906 20.7031-4.8437 21.4648-6.7695 21.4648-7.8789 21.4648-8.9766 21.2148-9.9883 20.6406-20.1484 14.6484-10.4648-2.9844 0 0Z" fill="#cfcfcf"/>
<path transform="matrix(1,0,0,1,1305.0625,2264.957)" d="M0 0C5.3047 4.4883-.6094 12.7891-6.3906 12.7891-7.5859 12.7891-8.7734 12.4336-9.8594 11.6172-17.7578 5.2266-7.5078-5.2031 0 0Z" fill="#cfcfcf"/>
<path transform="matrix(1,0,0,1,1326.5859,2233.129)" d="M0 0C2.4102 .7148 3.8008 3.4375 3 5.8086 1.7813 9.6289-.6875 11.1211-4.4844 11.125-4.6328 11.125-4.7773 11.1211-4.9258 11.1172-13.0195 10.457-10.2734-.8789-3.3711-1-2.1367-1.0586-1.1406-.2617 0 0Z" fill="#cfcfcf"/>
<path transform="matrix(1,0,0,1,1121.7774,1761.2774)" d="M0 0C-.3789 .1992-.7578 .3984-1.1328 .5977-2.3086 2.0391-3.5195 3.457-4.6445 4.9336-3.0391 3.375-1.4492 1.7383 0 0ZM11.2852-5.6992C10.1875-5.1719 9.0977-4.6367 8.0078-4.0977 5.9219-1.3789 3.7969 1.3125 1.7617 4.0781 4.9219 .8047 8.0859-2.4609 11.2852-5.6992ZM23.5-11.2812C21.4453-10.4023 19.4023-9.4961 17.3711-8.5625 14.043-4.5078 10.6328-.5391 7.25 3.4531 12.6328-1.4922 17.8867-6.625 23.5-11.2812ZM33.1758-15.1875C32.6758-15 32.1797-14.8086 31.6797-14.6172 31.1328-13.7461 30.1211-12.875 29.7148-12.1953 30.875-13.1914 32.0273-14.1914 33.1758-15.1875ZM44.4063-19.0742C42.8281-18.582 41.2539-18.0664 39.6875-17.5273 37.5391-13.957 34.4219-10.9531 31.8672-7.6523 36.082-11.457 40.1992-15.3047 44.4063-19.0742ZM56.9609-22.5078C54.1328-21.8516 51.3242-21.1172 48.5273-20.3125 47.7734-18.6133 45.0938-16.2188 44.5-15.2539 42.0195-12.3164 39.5703-9.3906 37.1133-6.4414 43.832-11.6641 50.1758-17.3789 56.9609-22.5078ZM66.832-23.6289C67.3203-23.9844 67.8086-24.3398 68.3008-24.6914 65.1445-24.2148 62.0039-23.625 58.8789-22.9414 59.3867-22.5664 59.6914-21.8281 59.4063-21.2305 57.0508-17.5547 53.7461-14.5391 50.8906-11.2266 56.1211-15.4609 61.3906-19.668 66.832-23.6289ZM78.1133-25.7656C77.4531-25.7383 76.793-25.6992 76.1367-25.6484 75.3203-25.5742 74.5078-25.4922 73.6953-25.3984 73.1523-24.0742 71.4805-23.0977 70.6328-22 67.6719-18.8281 64.6914-15.668 61.7031-12.5195 67.1602-16.9141 72.3711-21.7305 78.1133-25.7656ZM83.9648 61.9883C83.957 59.6563 83.9297 57.3203 84.0859 54.9922 82.707 54.9844 81.3359 54.9648 79.957 54.9297 71.6641 54.6953 63.3828 54.0859 55.1367 53.1445 55.543 53.4766 55.7891 54.0508 55.6875 54.8789 59.9297 57.8281 64.2109 61.0273 69.1875 62.625 73.6523 63.7813 78.4258 65.4531 82.9336 65.2773 84.0508 64.6875 83.832 63.0703 83.9648 61.9883ZM86.3047-24.3125C86.8945-24.7383 87.4844-25.168 88.0781-25.5938 86.5625-25.7031 85.043-25.7813 83.5273-25.8164 83.4648-25.6914 83.3945-25.5781 83.3125-25.4805 79.4453-20.9141 74.9883-16.7969 70.7734-12.5273 75.9102-16.5078 81.0469-20.4922 86.3047-24.3125ZM95.4766-24.8633C94.7148-24.957 93.9492-25.0469 93.1836-25.1289 92.6055-24.5313 91.8984-24.0195 91.3945-23.5547 89.0859-21.4141 86.832-19.2148 84.4688-17.1289 88.0664-19.8047 91.7383-22.3828 95.4766-24.8633ZM101.793-23.9961C101.5313-24.043 101.2695-24.0859 101.0078-24.1289 100.7969-24.1602 100.5898-24.1875 100.3789-24.2148 98.7109-22.5664 97.0039-20.9648 95.2734-19.375 97.418-20.9297 99.5977-22.4844 101.793-23.9961ZM115.6406-21.3906C113.0313-21.9414 110.4141-22.457 107.793-22.9414 106.3906-21.1953 104.7344-19.6367 103.1953-18.0117 99.3164-14.0156 95.3945-10.0625 91.5469-6.0352 99.5234-11.1953 107.3203-16.7852 115.6406-21.3906ZM125.6172-19.1328C124.2461-19.4688 122.8711-19.793 121.4961-20.1055 118.5234-16.4883 113.3828-11.9727 112.6563-11.1406 116.8633-13.9258 121.1289-16.7734 125.6172-19.1328ZM135.6016-16.5078C134.5703-16.8008 133.5391-17.0859 132.5039-17.3633 130.5391-14.6953 128.2734-12.2891 126.0117-9.875 129.1484-12.1602 132.3594-14.3633 135.6016-16.5078ZM145.8594-22.6602C144.793-26.8047 143.9023-30.6758 142.5156-34.7422 142.0859-36.2969 140.9531-37.9063 141.3477-39.5313 140.8242-39.207 140.1953-39.043 139.5469-39.0781 129.6211-39.6758 117.9648-41.4023 111.9648-50.2227 108.5586-55.4141 109.7148-61.8711 110.0156-67.6992 110.0391-67.9805 110.0508-68.2656 110.0586-68.5508 107.9609-66.6484 105.8359-64.7734 103.707-62.9063 96.5234-56.6758 89.668-50.082 83.1875-43.1172 80.3906-40.1406 77.6289-37.1211 74.7383-34.2383 77.0195-34.418 79.3125-34.5352 81.6172-34.5742 94.3984-34.5273 107.0898-32.2695 119.5547-29.6055 128.4492-27.7813 137.2109-25.4102 145.8594-22.6602ZM143.0469-13.2344C143.4805-13.4648 143.9258-13.7109 144.3789-13.957 143.2656-14.293 142.1562-14.625 141.0391-14.9531 139.125-12.6289 136.9727-10.5156 134.8945-8.3359 137.5898-10.0078 140.3164-11.625 143.0469-13.2344ZM147.2422 45.457C146.082 45.8164 144.9219 46.1719 143.7578 46.5273 128.1289 51.2656 111.9688 53.9492 95.6953 54.7422 101.3867 61.2422 106.7852 68.0234 112.6641 74.3633 115.4102 77.3867 118.543 79.9648 121.7305 82.4844 121.4883 79.2891 121.7344 76.0313 122.1445 74.0117 123.4336 66.4844 129.3711 60.9453 135.6914 57.2266 139.1914 55.3633 143.0508 54.375 146.9414 53.6563 146.4531 51.207 146.8555 48.082 147.2422 45.457ZM152.8437-11.2734C152.0352-11.543 151.2266-11.8047 150.4141-12.0664 149.7812-10.3711 147.957-9.0664 146.9414-7.6367 148.8789-8.9023 150.7852-10.2266 152.8437-11.2734ZM161.0898-7.918C161.332-7.6094 161.3281-7.1094 161.0273-6.832 159.0195-4.9883 157.0937-3.0547 155.25-1.0469 158.2109-3.1211 160.9062-5.8086 164.1953-7.3477 161.8633-8.1914 159.5273-9.0195 157.1797-9.8203 156.9453-8.4336 155.8398-7.4492 155.0781-6.3242 154.1094-4.9492 153.0742-3.6172 152.0547-2.2773 154.1445-3.5898 156.0156-5.3164 158.043-6.6914 158.9492-7.1406 160.0586-8.8867 161.0898-7.918ZM167.8906-5.9883C167.4687-6.1445 167.0469-6.3008 166.625-6.4531 166.7383-5.8203 166.625-5.0977 166.3086-4.6523 166.8086-5.082 167.3477-5.5352 167.8906-5.9883ZM173.1445-3.9766C172.6445-4.1719 172.1406-4.3672 171.6367-4.5586 170.8281-3.3555 170.0039-2.1641 169.1875-.9688 170.4961-1.9805 171.8203-2.9805 173.1445-3.9766ZM180.75-.9258C179.7344-1.3477 178.7148-1.7617 177.6953-2.1719 176.5625-.0586 174.7891 2.293 174.293 3.543 176.4844 2.1133 178.625 .6094 180.75-.9258ZM187.3906 1.8906C187.0391 1.7344 186.6836 1.5781 186.3281 1.4219 185.8281 2.1523 185.3203 2.8867 184.8125 3.6172 185.668 3.0039 186.5586 2.3633 187.3906 1.8906ZM190.4648 30.043C191.6289 29.3633 192.6641 28.7227 193.6406 28.0156 190.7812 29.3633 187.8945 30.6523 184.9883 31.8906 186.9023 31.6367 188.7734 30.957 190.4648 30.043ZM192.3906 4.1602C191.9687 3.9648 191.5508 3.7695 191.1289 3.5781 191.1602 3.9531 191.168 4.375 191.1523 4.8555 191.5742 4.6367 191.9844 4.4023 192.3906 4.1602ZM199.8203 7.6992C198.3906 7.0039 196.957 6.3125 195.5195 5.6328 195.1719 6.0898 194.832 6.5508 194.5078 7.0234 194.9844 6.8633 195.4687 6.7148 195.9648 6.6016 196.7109 6.3867 197.2773 7.3398 196.7305 7.8906 196.3867 8.3516 196.0586 8.8281 195.8047 9.3437 197.1562 8.8164 198.4609 8.2031 199.8203 7.6992ZM200.0977 17.793C201.0117 15.3203 203.0625 12.5195 200.9258 8.9336 200.8594 9.0273 200.7773 9.1055 200.6719 9.1602 199.2812 9.8711 194.2578 13.043 193.7344 10.293 192.6133 10.9766 190.8516 12.2109 189.7266 10.9141 188.7812 9.7031 190.1133 8.5586 190.9062 7.7109 188.0234 8.3125 188.4648 5.8828 188.6211 3.9375 186.6602 5.1523 184.9922 6.793 182.9961 7.9375 182.2383 8.2305 181.3633 8.8008 180.5625 8.3516 178.957 7.1406 180.3047 4.9687 181.2891 3.7891 182.1133 2.6328 182.9414 1.4805 183.7852 .332 183.6797 .2891 183.5742 .2422 183.4687 .1992 180.1836 2.7539 176.9883 5.5 173.3008 7.4531 171.8555 8.2734 169.8789 7.3008 169.9102 5.5703 169.9258 4.9258 170.2461 4.4258 170.5547 3.9531 171.4531 2.4453 172.2969 .9023 173.2617-.5664 170.2812 1.793 167.3672 4.2578 164.1992 6.3594 163.6875 6.6992 162.957 6.625 162.4805 6.2617 161.1523 5.25 162.3633 3.6797 163.0508 2.6992 163.8125 1.5391 164.5977 .3672 165.3672-.7695 163.8555 .4922 162.3242 1.7344 160.8086 2.9844 159.9219 3.6797 158.4805 5.0898 157.4375 3.9297 157.0625 3.4453 157.1328 2.8008 157.5273 2.3594 159.6484-.0117 161.6562-2.1328 163.5-4.6172 158.6172-1.4805 154.3984 2.625 149.4453 5.6445 148.5508 6.082 147.5977 4.8828 148.2461 4.1172 149.6836 2.4492 151.1484 .8008 152.6367-.8242 151.5703-.1211 150.6758 .3281 149.9414 .5859 149.7461 .8633 149.5508 1.1445 149.3633 1.4297 149.4609 3.1953 146.8125 3.4766 146.5195 1.7305 146.0469 .4258 147.0312-.8516 147.7969-1.8281 149.5352-4.1211 151.3945-6.3203 153.1562-8.5937 150.168-6.8477 147.3789-4.7969 144.4961-2.8906 143-1.832 141.5469-.4531 139.6367-.2773 139.0703-.1719 138.4727-.4805 138.1875-.9648 137.4453-2.4336 139.2422-3.668 139.9922-4.7695 142.2734-7.2305 144.6211-9.707 146.7578-12.1914 141.6172-9.8437 136.9687-6.7812 132.1836-3.8242 131.1406-3.0508 130.1328-2.0859 128.7891-1.9063 128.0547-1.8594 127.1016-2.1562 126.8906-2.9531 126.7813-3.3359 126.8594-3.7617 127.1016-4.0781 128.0898-5.3672 129.2031-6.543 130.3203-7.7227 132.4805-10.0156 134.6523-12.2969 136.8164-14.582 132.6758-11.9844 128.8555-9.0273 124.9531-6.1055 123.543-5.1797 116.2148 1.3711 116.707-3.4609 117.3672-5.1016 118.9492-6.082 120.0625-7.3945 123.4141-10.8984 126.8828-14.3008 129.9414-18.043 129.5586-18.1445 129.1797-18.2422 128.7969-18.3398 122.0391-14.9961 115.875-10.6016 109.7539-6.2227 107.6641-5.1094 105.9023-2.2109 103.2852-2.832 102.418-3.0664 102.1133-4.1641 102.7383-4.8125 104.2031-6.3906 105.7461-7.8867 107.3125-9.3594 111.2188-13.1133 115.2227-16.7813 118.9883-20.6719 118.7695-20.7188 118.5547-20.7695 118.3359-20.8125 110.7422-16.6563 103.7813-11.4687 96.6953-6.5156 93.1602-4.2852 89.832-1.2227 85.7305-.1719 84.5742 .0352 83.8047-1.4805 84.6406-2.3086 91.2383-9.5391 98.2617-16.3594 105.0156-23.4414 104.9805-23.4492 104.9453-23.457 104.9063-23.4609 99.2773-19.8008 94.0117-15.7461 88.6992-11.6562 86.3047-9.8477 84.0039-7.918 81.4297-6.3672 81.0313-6.1094 80.4727-6.1953 80.1445-6.5234 78.9297-8.1602 82.1602-10.3281 83.1992-11.3711 86.9453-14.8203 90.6758-18.2813 94.4375-21.707 88.4219-17.5352 82.6406-13.0352 76.7969-8.6328 75.5586-7.6211 74-5.9805 72.2695-6.793 69.9844-7.9766 74.1094-10.6719 74.9844-11.7344 78.1094-14.6445 81.2695-17.5156 84.4141-20.4023 78.6406-16.0508 73.0469-11.4687 67.3438-7.0312 65.6523-5.9414 64.5195-3.8945 62.375-3.8828 61.3594-4.0156 60.4023-5.2227 61.2578-6.1133 62.2461-7.2187 63.1875-8.3555 64.25-9.3867 69.0938-14.3008 74.0508-19.1055 78.8594-24.0508 72.3047-19.0703 66.1914-13.5352 59.9805-8.1445 58.0703-6.7812 56.9063-4.6094 54.5859-4.0508 53.4531-3.8906 52.0313-5.1055 52.8828-6.2227 57.5898-12.0781 63.1406-17.207 68.3555-22.6055 61.1328-17.3164 54.2344-11.6016 47.3164-5.9258 46.1992-4.9492 44.7031-2.8086 43.082-4.0273 41.8438-5.1797 44.1328-6.6562 44.6914-7.6211 47.8633-11.25 51.1133-14.8164 54.3398-18.3984 47.668-13.1836 41.6758-7.1172 34.9883-1.9375 34.1055-1.457 32.6445-.9219 31.8672-1.8086 30.6406-3.7578 36.0508-8.5 37.2461-10.2031 33.9063-7.1406 30.7383-3.8711 27.2773-.9766 26.2773-.2031 24.1094-.9961 25.0078-2.4102 28.5195-7.3555 32.75-11.7617 36.6055-16.4375 29.1055-10.3086 22.6602-3.125 15.5312 3.3828 14.8086 4.0039 13.7383 3.2305 13.875 2.3594 14.043 1.3711 14.9453 .7812 15.6641 .1836 19.9141-4.2305 24.1367-8.6953 28.2344-13.2539 28.2305-13.25 28.2227-13.25 28.2188-13.2461 19.6914-6.8867 12.3437 .8789 4.6719 8.207 3.8203 9.2148 .9766 9.5391 1.6563 7.5742 2.5039 6.1484 3.4609 4.7891 4.543 3.5312 2.4102 5.8437 .457 8.3711-2.1641 10.1562-2.8555 10.6836-3.8555 10.2031-3.8867 9.3359-4.043 6.9023-1.5703 5.3398-.4102 3.418-2.7891 5.7305-4.8047 8.3125-6.9922 10.7656-7.2305 11.0391-7.6406 11.082-7.957 10.9375-9.2656 12.0352-10.3867 13.9727-12.2891 13.875-12.9531 13.8906-13.4453 13.1172-13.082 12.5352-11.2422 9.5078-8.8164 6.8945-6.7227 4.043-9.293 6.5391-11.832 9.0664-14.4375 11.5273-15.0391 11.9883-15.8789 13.1094-16.7344 13.6133-16.4258 13.6641-16.1133 13.7148-15.8047 13.7656-8.8125 15.0937-1.6406 16.0078 4.9687 18.7578 8.1602 20.0664 11.0781 21.9609 13.7422 24.1367 14.6211 24.8516 14.9727 26.043 14.5234 27.1055 14.0586 28.2188 12.707 28.9414 11.5352 28.5547 8.9023 27.7305 6.3945 26.5586 3.8594 25.4727 3.3477 26.6289 1.6641 27.25 .5937 25.8438-3.5469 25.8242-7.6133 27.1367-11.5742 28.2383-13.1211 28.707-14.6445 29.25-16.1758 29.7578-1.793 35.4336 13.625 37.5859 28.7227 40.5195 58.4805 45.8359 89.3633 49.293 119.3125 44.1484 147.4258 38.8828 173.6953 28.2617 200.0977 17.793ZM254.1328-38.4766C253.9453-38.3594 253.7539-38.2383 253.5664-38.1211 249.418-35.5313 245.3789-32.7656 241.3828-29.9375 227.3008-19.793 214.3359-8.1484 200.0469 1.7188 200.1328 1.8203 200.2227 1.9258 200.3125 2.0273 200.668 2.2148 201.0156 2.3945 201.3477 2.5508 203.8047 3.8477 206.1445 5.5898 207.4297 8.1172 208.8086 10.6992 209.1797 13.7461 208.3828 16.5664 208.0117 17.6953 207.3867 19.1445 206.5469 20.3594 206.375 21.0313 205.9375 21.6641 205.1562 22.125 204.5586 22.4414 203.957 22.7578 203.3555 23.0742 213.6719 32.668 218.9805 46.1484 225.9023 58.1641 226.4453 59.1523 226.9961 60.1406 227.5508 61.125 225.6406 53.4922 225.2148 45.6875 225.6289 36.9258 226.7773 9.7812 235.4453-18.3594 254.1328-38.4766ZM262.1172-45.6523C265.6016-46.8398 267.1758-41.207 262.9648-41.3398 242.1367-21.9336 234.5312 7.5977 233.1055 35.1836 232.6094 47.1914 233.5977 59.4141 238.3125 70.5898 238.8125 71.9844 239.2383 73.4141 239.7031 74.8203 240.5234 77.6016 237.6719 79.4531 235.5312 78.6016 234.3437 80.4961 231.3164 81.1953 229.6875 78.6797 224.5273 69.9727 219.9453 61.2734 215.6562 52.2852 211.1875 42.9531 206.8477 33.2305 199.5078 25.8867 199.0859 27.1914 197.9297 28.6836 197.4023 29.3633 193.3203 33.5742 187.5 36.7695 181.4922 36.1367 180.2422 35.9844 179.6328 35.0703 179.5937 34.1289 179.3047 34.2461 179.0156 34.3633 178.7266 34.4766 178.7656 34.625 178.7812 34.7813 178.7773 34.9375 178.8242 40.6992 175.1055 47.5781 168.5664 47.0156 164.6836 46.5977 160.8125 45.6406 156.9922 44.8906 155.7891 44.293 156.2227 42.375 157.5625 42.3281 161.625 42.5273 165.8008 43.3281 169.8594 42.7227 172.8594 42.1992 173.9062 38.4922 175.0664 35.9102 167.3945 38.8672 159.6133 41.5313 151.7812 44.0273 151.3594 47.0234 150.543 50.0586 150.8867 53.0625 151.4414 53.125 151.9258 53.4805 152.1133 54.043 152.3008 54.6211 152.0977 55.2109 151.668 55.582 151.4062 56.6328 150.1719 57.4453 148.9766 56.9805 148.2773 57.3086 147.5703 57.6211 146.8516 57.9102 138.5234 60.9297 129.1875 65.7461 126.707 74.9453 125.8867 77.8789 125.5469 80.9414 125.4297 83.9805 125.4375 84.4609 125.4492 84.957 125.4844 85.4531 125.9453 85.8203 126.4063 86.1914 126.8633 86.5664 127.7344 87.3516 127.6719 88.4492 127.1289 89.2227 127.9453 90.4531 126.7734 92.2734 125.0703 91.3281 124.4219 90.8711 123.8828 90.2148 123.4414 89.4141 108.9453 82.7188 101.2031 67.7617 91.293 55.9844 90.9727 55.6211 90.7109 55.2695 90.5039 54.9336 89.5391 54.957 88.5742 54.9727 87.6055 54.9844 87.6406 56.1289 87.6602 57.2773 87.6875 58.4219 88.3789 66.5156 86.7695 71.3164 77.6055 68.9531 69.9648 67.5469 62.6172 64.8203 56.6523 59.7344 55.0352 58.4648 52.7891 57.3906 52.2188 55.2578 52.0313 54.0352 52.6094 53.2461 53.3477 52.9336 43.1602 51.7148 33.0273 49.9883 23 47.8438 9.1758 44.8086-4.8633 41.6328-17.4023 34.8359-18.7852 35.4336-20.6289 34.4375-20.7461 32.8906-20.7773 32.4844-20.8555 32.0859-20.8633 31.6797-20.8555 31.3867-20.8086 31.1211-20.7266 30.8828-21.3008 30.7695-21.8125 30.3867-22.0547 29.8125-23.582 26.0938-10.9375 23.668-8.3437 23.1328-7.2656 23.0273-5.9844 22.7695-4.6484 22.543-10.8789 20.6328-17.1328 18.5234-23.2188 16.4961-24.2148 17.8477-25.8945 16.918-26.6523 15.793-27.2383 15.207-27.4609 14.1914-26.8086 13.5625-26.1992 13.0234-25.4102 12.8945-24.6055 12.8828-24.5391 12.7773-24.4531 12.6797-24.3594 12.5898-22.1445 10.4687-19.6211 8.6992-17.1133 6.9375-17.5742 5.1602-15.3594 3.3359-13.8398 2.3359-9-1.1953-3.9492-4.4492 1.1602-7.582 21.0078-19.2813 42.6914-29.4492 65.5625-33.125 67.6758-34.9805 69.5977-37.0508 71.5078-39.1211 78.5078-47.1367 85.5078-55.1875 93.4805-62.2539 98.8945-67.2109 104.7109-71.7031 110.7539-75.8633 111.7578-76.5664 113.2148-76.2852 113.9805-75.375 114.4648-74.793 114.625-74.0977 114.5078-73.4336 116.1641-72.7148 117.1602-70.7305 115.0469-68.918 114.0977-57.3867 114.2852-51.9609 126.582-48.2422 131.1641-46.957 135.9062-46.3164 140.457-44.9023 141.8633-44.5 142.8789-43.2773 142.7461-41.7656 142.7266-41.5508 142.6875-41.3438 142.625-41.1484 144.5195-42.0117 147.5234-40.2266 146.3125-37.8906 148.668-33.0859 150.3477-28 151.8633-22.875 152.082-22.1445 152.0117-21.3867 151.7148-20.7383 152.5156-20.4688 153.3125-20.1914 154.1094-19.918 156.2187-22.3945 163.1992-22.4727 165.6445-22.3086 170.3086-22.1211 174.1992-20.7656 174.4609-15.457 174.582-13.8633 172.2617-13.2734 171.5898-14.7422 170.9414-15.7422 170.6211-17.0664 169.6133-17.7734 166.0312-19.3438 161.6094-19.7227 157.8359-18.6055 162.7852-16.832 167.7031-14.9609 172.5859-13.0234 173.832-12.5234 175.0742-12.0117 176.3086-11.4883 176.2305-11.9453 176.3789-12.4492 176.7734-12.7266 176.9766-12.8906 177.2148-13 177.4922-13.0117 180.9102-13.0625 184.3047-14.375 187.7695-13.7734 190.5742-13.3711 192.832-11.5742 194.9336-9.8008 195.5977-9.2305 195.6094-8.1562 195.0273-7.5273 194.4414-6.875 193.3945-6.8516 192.75-7.4336 187.207-12.6992 184.3633-10.6523 178.6055-10.5117 181.7578-9.1445 184.8828-7.7109 187.9805-6.2227 188.3906-6.5273 188.8047-6.8242 189.2187-7.125 190.1016-7.8516 191.4766-6.8281 191-5.7773 190.8711-5.4961 190.7266-5.2266 190.5703-4.9609 192.668-3.9297 194.7578-2.8711 196.832-1.793 197.168-1.3828 197.5352-.9961 197.9023-.6172 198.0703-.7734 198.2344-.9297 198.3945-1.0938 200.1328-2.8633 201.8711-4.6406 203.6367-6.375 207.5078-10.2305 211.6875-14.0312 215.7266-17.5234 227.1133-27.3125 239.2305-36.4609 252.6797-43.2227 255.0078-44.3594 257.3398-45.4688 259.6953-46.5508 260.543-46.9375 261.5937-46.5508 262.0547-45.7656 262.0781-45.7305 262.0977-45.6914 262.1172-45.6523Z" fill="#cfcfcf"/>
<path transform="matrix(1,0,0,1,1220.8477,1773.3086)" d="M0 0C1.6172-.3047 2.418 2.0469 .8828 2.7461 .7734 2.793 .6641 2.8398 .5547 2.8828 .7734 3.75 .3984 4.7539-.4648 5.1055-2.9609 7.8672-6.0039 10.0625-8.8906 12.3867-10.293 13.2969-14.2305 16.8438-17.4844 18.5938-17.6875 19.6289-18.7539 20.4219-19.8164 20.168-20.9336 20.3438-22.0352 20.6367-23.1367 20.8867-26.9102 21.7422-30.6719 22.6406-34.5078 23.1797-35.4375 23.3203-36.3828 22.7422-36.5547 21.7656-36.7344 20.7813-36.0742 19.9492-35.1445 19.7188-31.8359 18.9336-28.5078 18.2461-25.2109 17.4258-24.2695 17.293-22.8867 16.7891-21.5508 16.4805-20.707 15.4219-19.1875 14.5352-18.375 13.8281-15.0703 11.5312-11.6406 9.4258-8.3594 7.0977-7.7187 6.6211-7.0742 6.1445-6.4492 5.6484-12.1367 7.7734-17.8672 9.6328-23.7031 11.457-28.7148 12.9687-33.7773 14.3984-38.5234 16.6289-39.0078 17.4688-39.9805 18.0078-40.9727 17.918-42.6992 17.7773-43.6406 16-43.2031 14.4141-42.9883 13.2773-41.918 12.5469-40.9492 12.0703-38.9336 11.0781-36.8125 10.3125-34.7188 9.4961-23.3828 5.582-11.8477 1.9688 0 0Z" fill="#cfcfcf"/>
<path transform="matrix(1,0,0,1,1170.8945,1761.0703)" d="M0 0C4.1016 5.1797 9.2695 11.8125 6.6602 18.7656 6.2187 19.6055 5.8477 21.0313 4.7227 21.0547 4.6016 21.0547 4.4844 21.0391 4.3672 21.0078 .7422 26.3867-3.3906 31.2422-7.9727 35.7227-9.8711 37.0508-12.0117 40.8281-14.5586 38.8086-15.4492 37.9922-15.5742 36.457-14.6914 35.5742-11.4727 32.3047-7.9687 29.3438-4.5859 26.2461-1.9922 23.8672 .6055 21.4844 2.9023 18.8086 3.0391 18.6484 3.1797 18.4688 3.3281 18.2891 3.2187 16.1563 3.2578 14.1641 2.6328 12.0352 1.6797 8.1797-.0781 5.0859-1.3633 1.4414-2.1992 .582-.9258-.9922 0 0Z" fill="#cfcfcf"/>
<path transform="matrix(1,0,0,1,1148.5234,1765.2578)" d="M0 0C6.0859 1.3711 2.6484 12.6758-3.0312 11.207-9.7461 9.5781-6.0508-.9258 0 0Z" fill="#cfcfcf"/>
<path transform="matrix(1,0,0,1,628.9961,1510.0078)" d="M0 0C.3047 2.2539-1.3203 4.4297-3.5898 4.7266-13.3437 5.8711-23.1953 5.4453-32.9922 5.4687-42.2852 5.4102-51.582 5.6328-60.8711 5.8906-63.7539 5.6914-67.043 7.1406-69.6016 5.3789-71.4297 4.0234-71.8008 1.1953-70.3711-.582-69.5313-1.6641-68.3359-2.1523-67.0039-2.2344-61.9805-2.543-56.9453-2.6445-51.9141-2.8086-48.5273-2.9766-45.1406-3.0859-41.7539-3.1641-42.3672-12.4414-42.0078-21.7305-41.2969-30.9961-41.2969-31-41.2969-31.0039-41.2969-31.0039-41.3438-31.5078-41.3086-32.0195-41.1758-32.5273-40.8359-36.7422-40.4297-40.9492-40.0156-45.1523-39.6211-50.0117-39.6211-54.8633-39.7734-59.7344-39.7539-61.9688-37.168-63.6406-35.1797-62.3672-33.6133-61.5313-33.1719-59.6445-33.7266-58.1016-33.332-53.6758-33.125-49.2461-33.1094-44.7969-33.1758-42.0938-33.2656-39.3867-33.3594-36.6797-32.0977-36.6953-30.6641-36.5898-29.0391-36.332-25.4375-35.8047-22.0117-34.3945-18.3594-34.1367-14.8828-33.8477-11.8047-34.8789-8.5508-35.2422-3.6094-35.8633-2.1016-28.668-6.9141-27.2852-11.4805-25.793-16.4805-25.582-21.1641-26.6406-25.293-27.4531-29.3398-29.5391-33.6211-28.5156-33.8047-21.7148-33.8516-14.918-33.3828-8.125-33.4609-6.7461-33.2422-5.0234-33.1484-3.3086-25.5664-3.3945-17.9805-3.4102-10.3984-3.6133-6.7734-3.4844-.8438-4.9375 0 0Z" fill="#cfcfcf"/>
<path transform="matrix(1,0,0,1,703.9883,1487.1758)" d="M0 0C-.2266-11.875 11.9531-6.8789 6.7187-1.3008 6.4336 5.9648 6.25 13.2422 5.6406 20.4883 5.6289 20.6484 5.6172 20.8047 5.6094 20.9648 6 21.4922 6.2656 22.1211 6.3633 22.832 6.5156 24.3711 6.0469 25.4766 5.2148 26.2656 4.793 31.5195 4.2187 36.7656 3.1055 41.918 2.6602 43.9609 .4453 45.2617-1.5586 44.9961-3.875 44.6797-5.4648 42.5078-5.1875 40.2148-4.6992 36.3242-3.9219 32.4727-3.3984 28.5859-3.3789 28.4375-3.3594 28.2891-3.3398 28.1406-20.5352 27.7813-37.7266 28.3906-54.8906 26.9219-61.8477 27.1992-67.3125 24.1914-64.8516 16.457-63.918 12.0781-63.0469 7.6953-62.1875 3.3008-61.1484-1.8203-59.8789-6.9844-60.2109-12.2305-59.6914-15.6562-55.125-16.0391-53.7305-12.9727-52.6172-8.8086-53.4648-4.1602-53.8203 .1523-54.4961 6.0781-55.2617 11.9922-56.2344 17.8789-49.375 18.0703-42.5352 18.7695-35.6797 18.9961-35.7227 18.7578-35.7422 18.5078-35.7422 18.2422-34.8867 1.5898-31.3008-14.8516-31.0391-31.543-32.3125-32.7695-31.875-34.7266-31.3867-36.2266-30.5508-38.5313-26.8281-38.6055-25.9805-36.2617-24.8555-33.0703-24.7656-29.6133-24.6289-26.2617-24.4531-11.2266-25.8047 3.875-27.7188 18.7891-27.7305 18.8672-27.7422 18.9414-27.7578 19.0195-19.2344 18.8945-10.7109 18.957-2.1914 19.1211-1.4141 12.7539-.6992 6.3789 0 0Z" fill="#cfcfcf"/>
<path transform="matrix(1,0,0,1,804.5273,1457.0039)" d="M0 0C2.8711 1.1719 3.6875 5.168 1.4297 7.332-6.6445 11.8125-14.4687 16.7422-21.9297 22.0469-25.0664 24.2617-28.3359 26.3867-31.0391 29.1289-31.7656 29.875-31.7422 30.957-31.8516 31.9297-32.0313 41.9414-31.957 51.9492-32.7148 61.9336-31.2773 67.3047-33.0742 70.6875-38.6641 71.8828-44.5352 72.9414-50.5859 73.0117-56.5273 72.5313-61.8672 71.8281-61.3203 63.793-55.9297 63.7734-51.168 63.8789-46.375 63.9102-41.6484 63.2813-41.3359 53.1367-40.8242 42.9844-40.8867 32.8125-41.3477 27.082-37.9453 22.3359-33.3906 19.2188-27.6211 14.8516-21.5156 10.9727-15.5625 6.8672-23.0508 5.5781-30.6094 4.5273-38.2188 4.4844-44.7773 4.3164-51.4805 6.2812-57.9219 4.4336-60.8555 3.7734-64.75 .2656-62.1133-2.7422-60.4805-4.3945-57.0977-4.0586-56.5273-1.5938-52.668-1.1016-48.8633-2.3711-45.0742-2.9219-38.9961-3.9219-32.832-4.1094-26.7031-3.5195-20.5859-3.1406-14.582-1.9258-8.5156-1.1563-5.7031-.7031-2.6953-.9297 0 0Z" fill="#cfcfcf"/>
<path transform="matrix(1,0,0,1,817.8437,1517.6016)" d="M0 0C1.3281-1.6094 2.4141-3.7695 2.082-5.9023 .668-10.8164-6.5781-5.0781-8.0625-2.5898-9.3008-.6992-10.4805 2.043-9.1367 4.1484-7.8516 5.332-5.8398 5.1406-4.207 5.3711-4.2031 2.8437-1.418 1.7422 0 0ZM9.2656-5.7344C9.2383-1.3984 7.2109 2.8125 4.2266 5.8945 3.9297 6.9727 2.7617 7.543 1.9219 8.1758 .082 9.3633-2.1523 9.5469-4.2656 9.8672-6.1758 10.1445-8.125 10.5586-10.0703 10.3437-14.9258 9.8828-17.6875 4.8477-17.3672 .3203-17.2852-3.7266-15.082-7.4844-12.3789-10.3555-5.4883-18.0898 8.8008-18.4023 9.2656-5.7344Z" fill="#cfcfcf"/>
<path transform="matrix(1,0,0,1,477.6172,1664.5234)" d="M0 0C.5586-3.7695 .3398-9.0156 1.125-13.543-.9375-13.2187-3.0195-13.0039-5.1055-13.0039-5.793-13.0039-6.4805-13.0273-7.1719-13.0781-12.1914-13.1523-17.1992-14.4219-21.8164-16.1719-22.8125-16.6094-24.1172-16.7813-25.3242-17.0898-24.457-8.3516-23.918 .4219-24.1719 9.207-24.1875 9.957-24.2188 10.7031-24.2617 11.4492-18.0391 10.9609-11.832 10.3125-5.6172 9.8008-3.9453 9.6562-2.2734 9.5391-.5977 9.5039-.4648 6.3359-.2227 3.1719 0 0ZM19.0195-35.4336C18.8477-35.4297 18.6797-35.4297 18.5078-35.4297 17.0039-35.4297 15.5039-35.4648 14-35.543 9.1172-35.8438 4.1445-36.082-.6406-37.1406-7.5312-31.4219-15.6133-27.375-22.9648-22.2773-22.9414-22.0781-22.9414-21.8828-22.9609-21.6953-20.0742-21.6602-17.2344-21.0391-14.3633-20.8047-9.375-20.5117-4.4062-21.0703 .5742-21.2734 .5312-21.8359 .6523-22.4102 .9961-22.9453 2.0625-24.7695 4.0937-25.5781 5.75-26.7539 10.1992-29.6094 14.5781-32.5742 19.0195-35.4336ZM29.0195-29.0273C29.3711-31.3164 29.8398-33.6797 29.8086-35.9414 22.9023-30.7188 15.7305-25.8789 8.3594-21.3359 11.0117-20.3828 12.4375-16.832 9.1914-14.4297 7.5352-6.3633 7.9219 1.9414 7.4844 10.1562 12.832 8.1289 17.793 5.1328 23 2.7539 23.8867-2.7187 25.0703-8.1445 26.1563-13.582 27.1836-18.7188 28.1367-23.8633 29.0195-29.0273ZM33.8633-41.8477C34.6055-40.8867 34.4102-39.4961 33.4648-38.7539 33.0625-38.4375 32.6602-38.1211 32.2539-37.8125 32.8633-36.1289 33.043-33.7227 33.0859-32.8008 33.4805-21.9922 32.5039-11.1133 30.4609-.5 29.793 2.0469 29.8203 6.3516 26.793 6.8242 25.4102 7.8984 23.3984 8.6836 22.2852 9.5937 17.4219 12.2344 12.3477 14.957 6.9219 16.2148 6.4336 18.0547 4.8359 18.9375 3.2344 18.9375 1.8242 18.9375 .4062 18.2578-.2812 16.9453-2.1328 17.2344-4.3711 17.3398-6.7617 17.3398-9.9844 17.3398-13.4844 17.1484-16.6875 16.957-19.8945 16.7617-22.8047 16.5742-24.8281 16.5742-25.2734 17.5078-26.293 18.1523-27.3398 18.1523-28.6289 18.1523-29.9063 17.1367-30.0859 15.8398-30.6133 14.8789-30.5781 13.6406-29.875 12.8359-28.918 1.6875-28.6328-9.5039-28.6523-20.6836-30.2852-23.0469-27.9258-25.8398-25.6758-27.1367-22.7148-29.3203-19.7813-31.543-16.8164-33.7188-11.9102-37.1172-7.0508-40.5742-2.168-44.0039-1.4727-44.4805-.7109-44.7344 .1406-44.6211 1.3281-44.4883 2.1758-43.6875 2.5586-42.7031 11.4375-41.8867 20.0352-42.4844 28.9141-42.0156 29.2539-42 29.582-41.9375 29.8906-41.8281 30.2617-42.0195 30.6328-42.2109 31.0039-42.4023 31.9805-42.9063 33.168-42.7461 33.8633-41.8477Z" fill="#cfcfcf"/>
<path transform="matrix(1,0,0,1,1222.6836,1299.4102)" d="M0 0C.9219-1.5625 1.5156-3.3164 2.5508-4.8164-.25-5.4297-2.9766-6.3125-5.7422-7.0508-6.0195-6.9805-6.2969-6.9883-6.5547-7.0586-8.4922-5.7656-10.3242-4.2891-12.0898-2.8281-12.5742-2.418-13.0273-1.9844-13.457-1.5313-13.0547-1.875-12.5469-2.0781-12.0078-2.0547-7.9336-1.8867-3.9336-1.0273 0 0ZM28.1914 25.7344C30.8672 21.8828 32.6133 15.9727 26.6719 15.9687 26.3008 15.9687 25.8984 15.9922 25.4648 16.043 21.7383 16.3633 17.8867 17.4727 15.0977 20.0781 13.332 23.3945 10.9141 31.1719 17.3203 30.1836 21.1211 29.5781 26.0586 29.3984 28.1914 25.7344ZM51.9453-7.2969C58.2969-6.2266 63.4648-19.5078 66.668-24.0313 60.582-25.6133 54.4453-27.1133 48.4805-29.1406 47.7578-28.75 46.8828-29.0078 46.3789-29.582 36.8281-25.6719 28.4961-19.043 19.6016-13.7187 21.6406-13.7266 23.6758-13.543 25.668-13.1289 34.4883-11.5195 43.0586-8.5547 51.9453-7.2969ZM76.7188 37.2109C81.25 36.8125 87.0898 32.0703 84.6719 27.1563 83.6563 25.0859 81.7305 24.3359 79.625 24.3359 77.2266 24.3359 74.5938 25.3086 72.7891 26.4023 72.8008 30.5586 69.9688 37.3047 76.7188 37.2109ZM95.8672 14.0937C95.6797 14.1953 95.4727 14.2695 95.25 14.2969 94.0078 14.4609 92.7461 14.5625 91.4883 14.5625 91.1797 14.5625 90.8672 14.5547 90.5586 14.5391 91.8594 15.457 93.0547 16.5234 94.0977 17.7148 94.7227 16.5117 95.3398 15.293 95.8672 14.0937ZM98.4688 2.9219C98.4883 2.8008 98.5039 2.6797 98.5195 2.5586 95.9844 3.4531 93.2773 2.2266 90.7656 1.7266 89.9023 4.5273 89.543 6.8984 89.1875 9.6758 91.293 10.0117 93.4102 10.2539 95.4844 10.7734 96.0117 10.8984 96.4297 11.293 96.6445 11.7773 96.9648 10.1484 97.3633 8.5312 97.7344 6.918 97.7969 6.3555 97.8438 5.7852 97.8828 5.2187 97.9375 4.5156 98.0117 3.6992 98.3828 3.0703 98.3555 3.125 98.3359 3.1836 98.3281 3.2461 98.3672 3.1367 98.4141 3.0391 98.4648 2.9492 98.4688 2.9414 98.4688 2.9336 98.4688 2.9258V2.9219ZM99.4648-15.2266C99.4844-15.4023 99.5156-15.5703 99.5547-15.7266 93.9648-19.3867 88.7813-23.6836 82.8711-26.8281 74.2148-30.4727 64.6953-33.8984 55.1953-32.2305 54.3633-32.0742 53.543-31.8945 52.7344-31.6875 57.9375-30.6641 63.1758-29.8125 68.3594-28.707 76.1523-27.4336 71.8555-22.6953 69.6484-18.2539 65.3242-10.5195 61.2305-2.1172 52.2969-2.1172 50.9961-2.1172 49.5977-2.2969 48.0781-2.6797 39.6875-4.0625 31.8047-6.4102 23.6055-8.4883 21.5352-8.9844 19.4414-9.3789 17.3711-9.8828 16.5664-10.0781 16.0117-10.832 15.9609-11.6367 15.9297-11.6211 15.8984-11.6016 15.8672-11.5859 15.7695-10.8086 15.082-10.3555 14.3867-10.3555 14.0156-10.3555 13.6484-10.4805 13.3672-10.7656 12.6445-10.3828 11.7695-10.2773 10.9531-10.5273 8.7227-10.9375 6.4531-11.125 4.1836-11.0234 2.0898-10.9336 .125-10.4375-1.7422-9.6719-.5781-9.4414 .5898-9.2539 1.7656-9.0977 4.1406-8.7461 8.6562-8.3555 8.0703-4.9883 7.7187-3.8789 6.8242-3.0156 6.3711-1.9414 5.0508 1.2656 3.7031 5.0664 .2109 5.0664-.3945 5.0664-1.0625 4.9531-1.8047 4.7031-5.3789 3.7695-9.0742 3.5117-12.6211 2.4648-13.7148 2.1445-14.4414 1.0742-14.2852-.0664-14.2344-.4375-14.0859-.793-13.8633-1.0938-14.9531 .1055-15.9062 1.418-16.8516 2.7383-16.8672 4.5781-17.3203 6.4414-17.5898 8.2852-16.7266 8.6328-16.0078 9.3164-15.1289 9.6406-13.6719 10.125-12.1367 10.0898-10.6094 10.0508-10.1602 10.043-9.707 10.0312-9.2578 10.0352-5.6367 10.1211-2.0859 11 1.5078 11.3984 4.6094 8.5391 8.3398 6.5703 12.0664 4.6719 16.8086 2.168 22.1445 .5508 27.5508 .9219 37.8047 1.5977 42.1758 8.1289 42.2305 17.918 47.1719 17.9805 52.1133 18.832 56.8477 20.2422 63.0781 15.0742 70.7891 10.7734 79.0703 10.7305 80.7773 10.75 82.4844 11.0039 84.1328 11.4727 84.0078 10.8984 84.0195 10.2812 84.1719 9.6836 84.5625 6.418 85.3945 3.1797 86.5664 .1133 89.0156-5.5898 92.9258-.6875 96.7266 .1172 97.1211 .2148 97.5898 .1484 98.0508 .0781 98.3086 .0391 98.5664 .0039 98.8047-.0039 98.9336-1.4258 99.0195-2.8516 99.082-4.2773 99.1016-4.6875 99.1172-5.1016 99.1328-5.5156 99.1445-5.8203 99.1563-6.125 99.1641-6.4336 99.168-6.5391 99.1719-6.6445 99.1758-6.7539 99.2617-9.5781 99.3086-12.4062 99.4648-15.2266ZM103.3203-20.7852C105.1445-19.2695 107.3672-17.5664 105.6094-15.0703 105.4297-14.8398 105.2188-14.6406 104.9805-14.4727 104.8516-14.043 104.5938-13.5937 104.1797-13.1445 104.8438-5.125 105.7422 3.3477 102.7344 11.0195 101.957 12.6875 101.2813 15.5078 99.2734 15.7187 99.0703 16.3906 98.8398 17.0586 98.5742 17.7188 98.0195 18.8125 97.6484 20.6719 96.9727 22.0859 97.0039 22.1523 97.0352 22.2188 97.0664 22.2852 98.1172 24.7227 95.8711 26.918 93.6875 26.625 95.8242 37.7695 86.8555 49.793 76.4805 49.793 73.2656 49.793 69.9219 48.6406 66.7266 45.9531 61.4961 41.9766 58.5664 34.4766 60.2656 28.082 59.5078 28.5313 58.6523 28.7695 57.7773 28.7695 57.0742 28.7695 56.3594 28.6172 55.668 28.2969 52.0156 26.9766 47.2383 26.043 43.6016 25.8359 42.832 25.7383 42.0234 25.7734 41.2188 25.8125 40.4492 25.8477 39.6797 25.8789 38.9414 25.8008 37.2383 30.9766 35.2344 36.3594 30.5898 39.5078 27.6914 41.4258 24.2969 42.2109 20.8594 42.2109 17.8438 42.2109 14.7969 41.6094 12.0234 40.6445 7.5977 38.9922 2.8242 36.5742 .6523 32.1523-1.2578 27.6914 .2187 22.8906 3.0195 19.125 2.9766 19.125 2.9336 19.1211 2.8906 19.1211-.9453 18.8867-4.7422 18.0703-8.4805 17.2188-12.1758 16.7109-16.2891 16.3906-19.0859 13.6328-20.8828 14.2266-22.375 12.4961-22.3164 10.7852-22.418 9.5039-22.1563 8.3125-21.7617 7.1562-22.1563 6.8984-22.4531 6.4687-22.5078 5.8555-22.5703 5.0508-22.2188 4.4258-21.7539 3.8086-20.8984 2.4258-20.3047 .9141-19.6211-.5586-19.5977-.9883-19.5273-1.4102-19.1602-1.6914-19.1133-1.7305-19.0625-1.7617-19.0156-1.7891-18.8828-2.043-18.7461-2.293-18.5977-2.5391-13.4883-10.4414-4.8125-17.168 4.8867-17.4844 5.0898-17.4844 5.3047-17.4883 5.5352-17.4883 8.6758-17.5 13.9102-17.5078 14.8203-14.3906 18.9023-17.2734 22.6797-20.5859 26.5352-23.7656 38.3281-33.25 53.6875-41.3281 69.207-37.8906 76.1172-36.3281 83.1602-34.6445 89.3008-30.9883 94.1328-27.9063 99.0352-24.4063 103.3203-20.7852Z" fill="#cfcfcf"/>
<path transform="matrix(1,0,0,1,771.7031,1240.832)" d="M0 0C0-.0078-.0039-.0156-.0039-.0234-.8047-6.7617-.8047-13.5664-1.6875-20.2969-1.918-22.8828-2.6484-25.4336-3.1328-27.9922-5.1367-24.8164-6.625-21.3203-8.3164-17.9727-9.0703-16.8164-10.3906-13.0859-11.9648-12.1836-8.2812-4.9375-6.9609 3.25-5.0937 11.0977-4.5781 9.8945-4.0312 8.7031-3.4961 7.5078-2.7344 6.3594-1.5313 2.2187 0 0ZM31.9219 1.7031C32.1328 1.2266 32.3242 .7422 32.4922 .2461 25.4766-.6992 18.3867-.5977 11.4297 .8672 8.8984 1.3477 6.3203 1.6641 3.832 2.3477 3.5039 2.6484 3.0781 2.7891 2.6484 2.7891 2.4648 2.7891 2.2773 2.7617 2.1016 2.707 1.5547 3.8398 1.1211 5.0273 .5937 6.1641-.4453 8.4805-1.4414 10.8281-2.625 13.0703-2.2852 13.0898-1.9531 13.2187-1.6719 13.4766 7.5508 14.1016 16.707 12.3789 25.8789 11.5156 26.3242 10.6445 26.8398 9.8164 27.0273 9.2695 27.6602 8.2422 29.9961 3.1328 31.9219 1.7031ZM34.2148-14.1836C34.832-19.5117 34.6484-24.918 35.2188-30.2383 33.0469-29.9063 30.8516-29.7852 28.6523-29.6406 22.0781-29.1563 15.5156-28.0195 8.9219-28.0195 7.5273-28.0195 6.1328-28.0703 4.7383-28.1875 4.0195-28.2773 3.2266-28.3438 2.4375-28.4727 3.875-21.7773 5.1602-15.0469 5.332-8.1758 5.1641-6.7305 5.5156-4.1914 5.3906-1.9844 5.7461-2.0547 6.0742-2.1172 6.3516-2.1758 11.9453-3.3555 17.5508-4.7539 23.2891-4.9336 26.6328-5.0898 29.9648-4.7383 33.2656-4.2266 33.4453-7.5547 33.8984-10.8672 34.2148-14.1836ZM41.3164-33.5938C41.3164-32.6953 40.707-31.7891 39.8594-31.4648 39.2305-23.2266 40.5391-14.8164 38.7656-6.6328 38.3281-4.0508 37.6328-1.5313 36.7109 .9219 36.4609 1.6016 35.7383 2.0312 35.0234 2.0312 34.9453 2.0312 34.8711 2.0234 34.793 2.0156 34.5273 1.9805 34.2852 1.8867 34.0781 1.75 34.0234 1.918 33.9648 2.0859 33.9063 2.2539 33.9375 2.3242 33.9688 2.3984 34 2.4766 34.0156 2.7656 33.8281 2.9648 33.5938 3.0391 32.8008 4.9414 31.707 6.7617 30.9336 8.6445 30.5352 9.2187 30.2109 10.3906 29.7695 11.3594 30.4922 11.5781 31.0586 12.1641 31.1719 12.9805 31.3242 14.082 30.5391 15.0703 29.457 15.2422 22.0938 16.4531 14.625 17.25 7.1562 17.25 6.7617 17.25 6.3672 17.2461 5.9727 17.2422 3.5312 17.2227 1.1016 17.0313-1.3164 16.7148-2.2773 16.5547-3.5586 16.6055-4.25 15.8633-4.2617 15.8828-4.2773 15.9062-4.2891 15.9258-4.5391 16.3203-4.9609 16.5547-5.3984 16.5547-5.5586 16.5547-5.7187 16.5234-5.875 16.4531-6.6133 16.1484-6.7891 15.3008-6.4883 14.625-6.3437 14.2109-6.1914 13.8008-6.0312 13.3945-6.25 13.4805-6.4883 13.5273-6.7266 13.5273-7.3984 13.5273-8.0586 13.1602-8.2969 12.3047-10.457 4.2422-11.0078-4.6016-14.8594-12.0508-15.918-12.4062-16.2344-14.0898-15.1758-14.6445-14.6406-14.918-14.1602-14.8242-13.7422-14.5391-13.2773-15.9336-12.7539-17.3047-12.1484-18.6445-10.4375-22.5039-8.5781-26.3008-6.3594-29.8984-5.4805-31.2305-4.7305-32.8789-3.1797-33.5195-2.2734-35.125-.3437-35.332 .9766-34.5977 2.0391-34.625 3.0625-34.1172 3.3828-32.9727 7.8008-32.9258 12.1797-33.6406 16.5586-34.3516 22.5-35.3164 28.4375-36.2852 34.4688-35.3477 35.1055-35.1875 35.9727-35.0977 36.8242-34.9336 37.4141-35.5117 38.168-35.8828 39.0586-35.8516 40.2891-35.8047 41.3164-34.8594 41.3164-33.5938Z" fill="#cfcfcf"/>
<path transform="matrix(1,0,0,1,1112.9727,773.9922)" d="M0 0C-2.7969 4.2891-5.6914 8.5078-8.5586 12.7148-8.4414 12.7187-8.3242 12.7344-8.2031 12.7617-5.3516 8.5117-2.3086 4.5508 0 0ZM7.1602 105.5078C7.6914 105.1914 8.2266 104.8789 8.7656 104.5742-1.5039 95.0664-12.2266 86.0586-23.2891 77.4883-30.4961 71.9336-38.0352 65.9297-46.9648 63.6133-47.4297 63.9141-47.918 63.957-48.3555 63.832-49.8867 64.4844-51.4258 65.125-52.9609 65.7773-58.3867 68.1211-63.5195 70.8945-68.6406 73.8008-70.0625 74.6484-71.4766 75.5039-72.8828 76.375-72.9023 76.5469-72.9492 76.7148-73.0234 76.875-73.7422 79.4609-74.6797 82-74.9922 84.668-75.6055 87.1094-76.8945 95.75-80.3711 94.8672-80.6406 95.4102-81.2148 95.7656-81.8164 95.7656-81.8867 95.7656-81.957 95.7617-82.0273 95.75-84.9258 95.3086-82.3594 89.6719-81.9961 87.8359-81.5391 85.7344-81.2813 83.1797-80.3008 81.1367-90.9805 88.207-101.2148 95.9492-111.1133 104.0703-111.1328 104.0898-111.1523 104.1055-111.1719 104.1211-111.207 104.1523-111.25 104.1875-111.2891 104.2227-111.7578 104.6367-112.2305 105.0547-112.7031 105.4727-112.6055 105.5703-112.5156 105.6797-112.4258 105.8047-107.1016 107.5625-102.1172 104.5625-97.0508 103.3242-96.0313 103.0781-94.9648 103.5508-94.5469 104.5352-93.6289 106.8711-96.4688 107.6992-98.0742 108.4883-101.2227 109.7227-104.6211 110.7031-108.0313 110.7031-108.7539 110.7031-109.4766 110.6563-110.1992 110.5625-111.1758 110.3711-112.1797 110.1289-113.1367 109.7773-105.668 113.7969-98.3906 118.1992-90.8086 121.9922-90.6641 121.4766-90.5234 120.9648-90.4297 120.4453-90.1602 119.0352-89.9922 117.6016-89.7227 116.1914-89.7188 115.2852-89.2383 114.3945-88.3945 114.0469-88.0977 112.8359-86.8008 111.9648-85.5781 112.332-82.8555 113.3086-84.168 117.1523-83.8672 119.3789-83.5313 119.6992-83.3164 120.1484-83.3359 120.625-83.3984 122.1953-83.5664 123.7578-83.7109 125.293-82.1602 125.9531-80.5898 126.5781-78.9961 127.1563-70.0977 130.7227-60.4219 133.0352-51.4453 136.2187-50.9258 136.4844-50.1914 136.7187-49.4219 136.9883-49.1523 136.5-48.6719 136.1133-48.0781 135.9766-46.4453 135.7031-44.7383 135.9453-43.1094 135.5312-38.6445 134.4258-34.9883 131.9102-31.0703 129.7266-24.8438 126.1016-18.75 122.2383-12.7422 118.2539-6.1602 113.9297 .332 109.4453 7.1602 105.5078ZM50.1172 71.9805C50.2969 71.6094 50.5859 71.043 50.9453 70.4961 47.7734 72.3555 44.582 74.1797 41.3789 75.9883 30.1719 82.2656 19.25 89.0352 8.5977 96.2109 8.3789 96.7773 7.8477 97.0273 7.2852 97.0508 8.875 98.5898 10.4141 100.1719 11.9805 101.7266 12.2383 101.9844 12.418 102.2969 12.5156 102.6289 13.1602 102.5586 13.8242 102.8125 14.2422 103.3516 14.8672 104.1602 14.7344 105.418 13.8945 106.0352 12.0352 107.4023 10.1641 108.7539 8.3008 110.0703 12.375 111.3945 17.9922 115.3281 19.6719 116.6406 25.8789 121.6836 32.375 126.3398 38.9023 130.9609 41.2461 132.6484 43.5313 134.4258 45.8047 136.2109 36.6875 118.5781 36.2813 96.3984 46.1719 79.0039 47.4648 76.6484 48.8672 74.3594 50.1172 71.9805ZM53.8438 69.6133C54.0117 70.1719 53.6328 70.8086 53.043 70.8867 49.9688 76.0898 47.0234 81.8438 45.0586 87.5078 41.2617 100.0586 41.8125 113.7695 46.6406 125.875 48.2773 130.1445 50.4375 134.168 52.3867 138.293 53.2109 140.0664 51.6758 141.6094 50.1406 141.6094 49.4375 141.6094 48.7344 141.2852 48.2539 140.5078 47.7813 139.7578 47.3281 138.9961 46.8945 138.2227 46.8516 138.4805 46.7539 138.7344 46.5859 138.9609 46.2422 139.4336 45.7148 139.6758 45.1758 139.6758 44.8164 139.6758 44.4531 139.5664 44.1445 139.3516 36.9688 134.2344 29.6016 129.332 22.7344 123.7969 17.5625 119.5391 12.4844 114.3672 6.0273 112.3516 5.6484 112.5625 5.2695 112.5586 4.9453 112.418 3.7734 113.2305 2.6094 114.0195 1.4648 114.7891-8.793 121.875-19.332 128.6172-30.4258 134.3164-30.3477 134.375-30.2734 134.4414-30.2031 134.5156-28.9844 136.25-28.8867 138.5781-28.0391 140.5039-27.7891 140.0195-26.9961 140.3555-27.2305 140.8672-27.3359 141.082-27.4961 141.3594-27.7383 141.4297-26.1094 146.3047-24.0898 151.0391-22.4102 155.8945-21.8047 158.1172-20.5195 160.4102-20.8711 162.75-20.9336 163.0234-21.043 163.2578-21.1875 163.4609-19.7617 164.7148-18.4414 166.0898-17.2617 167.6094-12.3281 173.5469-8.6367 180.3516-4.918 187.0742-.6758 194.6484 3.4141 202.3086 7.5352 209.9492 10.9961 215.8945 14.1758 221.9883 16.9336 228.2734 15.7891 221.043 14.4453 213.8203 13.0508 206.6406 11.3437 200.1992 8.8477 193.9844 7.5781 187.4297 4.3164 173.8008 7.4414 159.8242 6.1875 146.0508 5.7344 137.9258 2.8281 130.8164 .3867 123.25-.3594 120.7109 3.3281 119.0938 4.6602 121.4492 5.5312 122.957 6.3594 124.4805 7.1719 126.0234 10.5234 132.4922 12.2695 139.6914 12.7187 146.9492 13.7539 159.5 11.1133 172.125 13.0664 184.6406 13.9219 191.6992 16.2422 198.9648 17.5703 205.832 18.3867 210.0937 18.7344 214.4336 19.3672 218.7266 20.332 225.3516 21.9961 232.1211 20.3516 238.7695 20.9063 239.9375 19.8828 241.0352 18.7773 241.0352 18.4961 241.0352 18.2109 240.9648 17.9453 240.8086 16.9375 240.2617 17 239.0352 17.2305 238.0781 17.2422 238.0117 17.2539 237.9492 17.2617 237.8828 13.5703 231.6875 10.9141 224.9609 7.3125 218.7109-.3164 205.1797-7.6445 191.4727-15.4414 178.0352-18.1133 173.7266-20.9844 169.4453-24.7852 166.043-27.1367 163.9766-29.8398 162.3984-32.457 160.6953-37.3984 157.5078-42.1367 153.5312-44.2813 147.8828-44.9609 145.9297-46.2773 143.6484-45.3633 141.5898-44.1914 139.6406-41.207 141.0312-42.2266 143.1562-40.7383 150.4609-35.9063 154.207-29.6992 157.5898-28.8398 158.0703-27.9922 158.5664-27.1563 159.0859-27.5078 158.0586-27.7852 156.9766-28.2031 156.1133-29.1133 153.6367-29.8672 151.1016-30.5391 148.5469-31.6133 144.3906-33.8203 140.3633-33.7695 135.9922-34.7539 136.4727-35.7422 136.9453-36.7344 137.4102-39.5625 138.7617-42.6211 139.4531-45.7305 139.5625-45.668 139.8359-45.6719 140.1406-45.7539 140.4766-45.9844 141.332-46.8086 141.9609-47.6836 141.9609-47.7773 141.9609-47.8711 141.9531-47.9688 141.9375-57.5859 140.2305-67.0781 137.5781-76.1914 133.9961-76.457 134.1953-76.7852 134.3203-77.1719 134.3437-76.2383 147.8828-71.9922 160.8633-67.5898 173.6133-61.2188 191.9961-54.7109 210.3008-46.0391 227.7344-42.082 235.7578-37.4531 243.7187-31.4648 250.3555-29.2969 252.7578-27.0547 255.0977-24.918 257.5312-24.4336 258.0703-24.3359 258.8477-24.793 259.4453-25.0742 259.8125-25.5156 260.0078-25.957 260.0078-26.2656 260.0078-26.5742 259.9102-26.832 259.707-43.2578 247.75-51.1836 228.3711-58.9336 210.2891-66.8164 189.7891-74.7383 169.2031-79.3633 147.7305-80.1875 142.6562-80.9844 137.5039-80.7188 132.3477-80.7109 132.2773-80.707 132.207-80.6953 132.1406-82.7227 131.2578-84.7305 130.3359-86.7109 129.3594-86.9492 129.2969-87.1836 129.1875-87.3984 129.0195-88.1211 128.6641-88.8398 128.2969-89.5547 127.9258-99.4375 123-108.168 116.125-117.8398 110.8594-118.7695 110.8633-119.5 109.7734-119.2266 108.8828-119.043 108.2969-118.6914 107.9883-118.2656 107.8594-117.1953 104.5039-107.5547 96.4375-105.9258 94.9297-91.7461 83.1641-76.7383 71.8672-60.1484 63.8359-59.6992 63.6289-59.2461 63.4258-58.793 63.2266-58.8398 63.1406-58.8789 63.0508-58.9141 62.9531-60.0742 59.5742-53.7578 53.4609-51.8359 50.5898-48.1172 46.0742-44.1914 41.668-39.668 37.9453-35.0391 34.4141-29.9375 31.2305-25.8828 27.0469-20.793 22.1133-16.7344 16.2734-12.8398 10.3828-8.3164 3.6875-4.0625-2.4297 .1953-9.1094 2.3398-12.4766 4.6836-15.7383 7.5352-18.5508 8.0117-19.0273 8.7695-19.125 9.3477-18.7852 9.9727-18.418 10.2812-17.5859 9.9727-16.9141 9.8359-16.6445 9.6953-16.375 9.5586-16.1094 10.1016-15.5039 9.9648-14.3711 8.9844-14.1133 7.9492-9.0156 8.4258-3.7539 7.7812 1.4023 7.3945 5.8086 6.5391 10.1523 6.2773 14.5703 5.9492 25.9648 6.6328 37.375 6.2187 48.7734 6.1992 56.082 6.1094 63.3984 5.8594 70.7031 5.8867 77.0781 4.543 83.3984 1.4727 89.0156 1.1953 89.5898 .6328 89.9688 .0312 89.9688-.1016 89.9688-.2383 89.9492-.375 89.9102-1.0859 89.7148-1.6563 88.9492-1.5039 88.1992-1.0664 85.8594-.4453 83.5742 .082 81.2578 1.0273 76.9023 1.1836 72.6797 1.2422 68.3047 1.4258 54.7227 1.7773 41.1289 1.8125 27.5508 1.625 19.6602 1.957 11.7578 3.6992 4.043 4.5469-.3008 5.0625-4.6992 5.6523-9.0859 4.293-6.7734 2.8828-4.4922 1.4375-2.2305 1.6328-2.3008 1.8594-2.3008 2.1289-2.207 2.6914-1.9688 2.8633-1.3203 2.5977-.8047 1.4336 1.4688 .2031 3.7109-1 5.9609 .8203 7.4766-1.2695 9.9414-1.8906 11.6211-3.6172 14.8359-5.6094 17.9023-7.4687 21.043-10.6836 26.2148-13.5977 31.8359-16.25 37.25-18.8477 42.4102-21.2734 47.6289-23.3398 53.0234-24.0977 55.2188-24.793 57.4297-25.4141 59.668-25.8516 61.8711-26.7695 64.3828-29.2813 64.3828-29.4492 64.3828-29.6211 64.3711-29.8047 64.3477-33.2773 63.707-33.0273 60.2305-31.9492 57.6484-31.0898 55.0313-30.6406 52.3086-29.7852 49.6875-28.2578 44.5039-26.5859 39.3672-24.9063 34.2305-24.4453 32.4961-22.3945 31.4727-20.75 32.2422-18.9063 28.6602-16.9531 25.1328-15.0117 21.6016-16.7344 23.7656-18.5547 25.8516-20.5156 27.8086-25.9805 33.6523-33.0352 37.5273-39.2773 42.3945-45.5078 48.1758-51.7852 54.3477-56.3008 61.5625-56.1875 61.7344-56.1055 61.9063-56.0508 62.0703-53.2305 60.9492-50.3438 60.0039-47.3711 59.3555-46.4688 59.1406-45.5234 59.5586-45.1523 60.4336-45.1445 60.4531-45.1367 60.4727-45.1328 60.4922-44.6914 60.6406-44.2656 60.7891-43.8711 60.8945-40.8164 61.9375-37.8398 63.2148-35.0234 64.7969-28.4883 68.6016-22.5156 73.2891-16.4023 77.7188-8.9961 83.3438-1.5469 88.9453 5.3281 95.2148 5.4297 95.3086 5.5312 95.3984 5.6328 95.4961 5.7227 95.0039 6.0742 94.5313 6.6133 94.293 20.9727 83.8359 35.6445 73.7539 51.6367 65.9297 53.6719 64.8125 55.4609 67.793 53.4453 69.0234 53.4219 69.0391 53.3945 69.0547 53.3711 69.0664 53.5352 69.1836 53.6914 69.3633 53.8438 69.6133Z" fill="#cfcfcf"/>
<path transform="matrix(1,0,0,1,1077.7344,844.1992)" d="M0 0C1.1328 1.6875 .1328 3.8711 .0078 5.7344-1.2188 16.7852-2.3789 27.8711-2.2227 39-2.0703 44.5703-1.6172 50.1172-.9141 55.6445-.75 57.8047 .3203 60.7852-2.0352 62.1289-2.543 62.3984-3.1133 62.5469-3.6758 62.5469-4.3203 62.5469-4.957 62.3516-5.4805 61.918-7.5234 59.9453-7.2227 56.7031-7.6797 54.0898-9.8711 53.1875-9.1914 50.5742-9.1367 48.7031-8.8789 44.2422-8.6367 39.7852-8.4062 35.3203-7.418 23.9258-6.6406 12.4414-4.5977 1.1758-4.3086-.9922-1.2891-1.7852 0 0Z" fill="#cfcfcf"/>
<path transform="matrix(1,0,0,1,1110.2305,998.5273)" d="M0 0C.7656 .7969 .793 2.082 0 2.875-.3984 3.2695-.9063 3.4609-1.418 3.4609-1.9414 3.4609-2.4687 3.2578-2.875 2.875-19.0898-12.1055-34.1367-28.4414-46.8828-46.4883-53.1953-55.5234-58.7578-64.9336-64.1914-74.5-66.2891-78.1523-68.6016-81.7305-70.9727-85.1289-71.4219-85.7969-71.8633-86.5273-71.7227-87.3633-71.3516-89.4414-67.9023-88.8828-68.5938-86.6953-63.2227-79.2266-58.8906-71.1055-54.0234-63.3086-48.1094-54.0078-41.5938-45.0703-34.4375-36.6836-25.6914-26.1914-16.1445-16.4102-6.5391-6.7109-4.3477-4.4844-2.1719-2.2461 0 0Z" fill="#cfcfcf"/>
<path transform="matrix(1,0,0,1,1064.6016,873.9492)" d="M0 0C2.0742 1.3438 .0547 3.5156-.9063 4.8945-3.3711 8.3984-4.207 12.793-6.6445 16.2734-8.1992 17.9063-10.5547 18.3906-12.8281 18.3906-13.5859 18.3906-14.332 18.3359-15.0391 18.2539-16.625 17.8789-19.5391 17.0547-18.7695 14.8945-18.4219 14.0781-17.5586 13.7148-16.7188 13.9023-14.7148 14.4922-12.3906 15.1992-10.3594 14.6992-9.9609 14.6289-9.7266 14.3711-9.6094 13.9961-9.2305 12.832-8.7266 11.7109-8.1992 10.6094-7.0937 8.3672-6.0703 6.0781-4.7461 3.9531-7.0898 4.5781-9.3789 5.3906-11.625 6.3086-13.5117 6.8984-17.8906 9.2773-18.3906 6.0234-18.3906 5.082-17.5273 4.2461-16.5664 4.375-12.6367 3.4844-8.9687 1.6133-5 .8008-3.3633 .5469-1.625-.6914 0 0Z" fill="#cfcfcf"/>
<path transform="matrix(1,0,0,1,1030.3438,873.0117)" d="M0 0C4.3008 1.0586 3.3242 7.0391 .2148 8.9922-.3672 9.5195-1.1523 9.8125-1.9336 9.8125-2.4414 9.8125-2.9453 9.6875-3.3906 9.4336-7.5742 6.8906-4.8789-.7344 0 0Z" fill="#cfcfcf"/>
<path transform="matrix(1,0,0,1,1043.4766,869.0078)" d="M0 0C.3672 3.168 .4023 6.3828-.6914 9.4375-2.2891 14.3047-4.3281 19.3555-8.4258 22.6523-9.0039 23.1289-9.7148 23.832-10.4609 23.832-10.7148 23.832-10.9766 23.75-11.2383 23.5469-11.7617 23.1406-11.9492 22.3398-11.5859 21.7656-10.4766 19.9531-9.0859 18.3477-7.8945 16.5938-4.5273 11.5391-1.8398 5.8164-2.3594-.3242-2.1133-1.8516 .1836-1.5469 0 0Z" fill="#cfcfcf"/>
<path transform="matrix(1,0,0,1,538.4844,935.293)" d="M0 0C-.0078-.4883 .1211-.918 .3437-1.2695-1.457-1.0156-3.2422-.7031-5.0078-.3516-3.5664 .7461-1.8438 1.293-.043 1.5977-.1953 1.0781-.1953 .5156 0 0ZM8.1289-1.9492C8.1328-1.957 8.1367-1.9648 8.1406-1.9727 6.7812-1.9258 5.4219-1.8359 4.0664-1.707 4.1445-1.6289 4.2227-1.543 4.293-1.4531 5.25-.4062 5.2773 1 4.7422 2.0469 4.9414 2.0586 5.1367 2.0703 5.332 2.0859 5.7969 2.1055 6.2578 2.1172 6.7187 2.1211 7.1641 1.5391 7.582 .9609 7.7383 .3984 8.1914-.3516 7.8516-1.1758 8.1289-1.9492ZM12.4922 12.2031C12.7461 11.6211 13.0039 11.0352 13.2617 10.4531 12.875 10.1055 12.6797 9.543 12.7695 9.0273 10.625 9.2812 8.7539 9.3984 7.5234 9.3828 8.9727 10.4414 10.4883 11.3984 12.1641 12.0664 12.2734 12.1094 12.3828 12.1562 12.4922 12.2031ZM15.6367 1.2617C18.2734 .8125 20.8984 .2578 23.5234-.2266 19.2383-1.4844 14.7812-2.0039 10.293-2.0078 10.5664-1.6484 10.6953-1.1016 10.707-.4648 10.8555-.5156 11-.5664 11.1406-.6172 12.4023-1.0156 13.668-1.3672 14.957-1.2148 15.4258-1.1641 15.8359-.9336 16.0547-.5039 16.3047 .2148 16.0898 .793 15.6367 1.2617ZM21.3711-9.4883C21.2031-11.1758 21.1914-12.875 21.1133-14.5703 19.832-13.8164 18.5313-13.0937 17.3672-12.1953 16.3438-11.4609 15.3008-10.7617 14.2383-10.0898 16.6367-10.1055 19.0391-9.9336 21.3711-9.4883ZM24.5938 8.0625C25 7.2852 25.418 6.5312 25.9648 5.8555 23.6094 6.9297 20.4375 7.7539 17.3164 8.3359 17.3281 8.4492 17.3281 8.5625 17.3125 8.6836 18.6836 9.2812 20.0234 9.9687 21.4805 10.3477 22.0195 10.4766 22.5625 10.6016 23.0938 10.7539 23.625 9.8789 24.1602 8.9961 24.5938 8.0625ZM45.6836-7.8906C45.332-7.7539 44.9961-7.625 44.6953-7.5 40.668-6.0547 36.5234-4.9258 32.3672-3.8984 32.4922-3.7617 32.6211-3.6211 32.7461-3.4844 34.3281-1.75 33.3867 .7812 31.6172 1.7188 35.0234 2.8867 39.3008 6.4062 41.3555 7.1211 41.8555 7.332 42.4727 7.5352 43.0117 7.5078 42.0078 5.9375 41.3711 3.9922 39.9883 2.7187 36.8555 2.082 37.1953-2.9141 40.4766-2.9414 40.5664-2.9375 40.6563-2.9297 40.75-2.918 42.2109-4.6797 44.2266-6.1445 45.6836-7.8906ZM49.1133-10.2773C50.0625-8.7187 48.6758-6.2539 48.0938-4.7227 47.375-3.1523 46.4023-1.418 45.1406-.0469 47.4453 2.3125 49.4219 5.5469 49.1563 7.4414 49.0313 9.1406 47.2734 10.3945 45.6836 9.7969 45.5195 9.7422 45.3672 9.6758 45.2188 9.6055 44.0938 10.7031 42.3633 11.1523 40.7734 11.0625 37.5625 10.9336 34.6992 9.3125 31.8555 7.9727 30.9609 7.5 29.7148 6.9531 28.7266 6.2383 28.7539 6.9844 28.668 7.7305 28.4766 8.4531 27.9883 9.9609 27.168 11.3164 26.2656 12.6172 26.9297 13.7695 26.2422 15.5156 24.8477 15.7617 24.1523 15.8867 23.3828 15.9687 22.6797 15.8164 19.9883 15.4102 17.9609 13.707 15.9531 12.0273 15.6016 12.7773 15.2461 13.5234 14.9297 14.2812 15.9844 16.6406 12.582 17.9375 10.6602 17.082 7.5273 16.0273 5.9453 12.5586 4.1445 10.1758 3.8477 9.8945 3.6094 9.5078 3.5156 9.1094-1.5977 8.4375-6.7656 6.3633-8.8867 1.4336-8.9531 1.2813-9.0156 1.125-9.082 .9609-10.4336 .2617-11.332-1.4102-10.4102-3.2695-7.6562-7.0195 1.8086-8.6328 6.6133-9.4922 6.9219-9.8008 7.2617-10.082 7.5469-10.3516 8.1992-10.9727 8.8437-11.6016 9.4844-12.2344 12.4766-15.1719 15.4414-18.2852 19.1406-20.332 20.5195-21.0742 22.125-21.5625 23.6992-21.2969 25.3359-21.0391 26.1133-19.0117 25.2422-17.6875 26.4336-14.6562 27.2813-11.4609 27.6484-8.2187 27.6719-7.9453 27.6602-7.6914 27.625-7.4492 28.3086-7.1172 28.9766-6.75 29.625-6.3398 29.6641-6.3125 29.7031-6.2891 29.7422-6.2578 34.2891-9.4805 42.8984-12.5977 45.7813-13.3086 47.0156-13.7422 48.4414-13.3125 49-12.0703 49.2969-11.3594 49.3008-10.7734 49.1133-10.2773Z" fill="#cfcfcf"/>
<path transform="matrix(1,0,0,1,721.7617,594.6484)" d="M0 0C.4805-1.7305 1.0859-3.3984 1.2305-4.3984-2.1094-5.5625-5.3672-6.9609-8.7812-7.9219-10.4961-6.3555-11.8711-4.4961-13.0195-2.4727-13-1.9961-13.1992-1.6289-13.5078-1.3711-12.668-1.2656-11.8984-1.1563-11.4375-1.2188-7.6172-1.0117-3.7695-.6992 0 0ZM56.1445 18.1914C55.1445 14.5508 54.7969 10.7383 53.3984 7.2109 52.7539 5.6289 51.9102 4.1523 51.0625 2.6758 49.7773 2.4687 48.5156 2.1016 47.2969 1.6758 42.7148 .1172 38.1953-1.6641 33.9922-4.0781 33.4531-4.4375 32.8828-4.7461 32.3008-5.0273 30.4023-3.043 27.7461-1.8242 25.4922-.2891 22.4414 1.4961 19.3789 3.4648 15.9687 4.4648 29.5586 8.4766 43.1602 12.5352 56.1445 18.1914ZM72.418 34.5664C72.1211 34.5039 71.8242 34.3984 71.5352 34.25 60.0117 29.3711 48.7773 23.7969 36.9531 19.6563 29.5234 16.957 21.9766 14.4727 14.6484 11.5352 10.2773 9.793 6.207 7.9414 2.0352 6.3008 1.6484 6.3789 1.2383 6.3594 .8594 6.2305 .3984 6.0742 .0625 5.8086-.168 5.4609-2.2344 4.6953-4.3477 3.9922-6.5469 3.3945-9.6367 2.5781-12.7852 1.957-15.8398 1.0195-15.8984 1.0352-15.957 1.0469-16.0117 1.0508-15.8164 1.918-16.1836 2.8086-17.4063 2.9961-22.7656 13.6211-25.543 25.3008-28.7188 36.7148-29.6875 40.5664-30.7109 44.4023-31.7813 48.2266-32.1523 49.2422-32.4414 50.5781-32.8867 51.7891-32.5234 52.0703-32.2305 52.4688-32.0508 52.9844-30.9922 54.4219-29.6289 55.5977-28.2539 56.7305-17.9961 63.4844-5.2344 64.9805 6.25 68.8828 16.0469 71.543 25.957 73.7734 36.0078 75.2188 39.9141 75.7852 43.8086 76.3711 47.6953 77.0508 47.7695 76.3281 48.0586 75.6172 48.6016 75.0039 56.9727 65.7734 64.8359 55.8867 69.6484 44.2813 70.9297 41.1445 71.918 37.918 72.418 34.5664ZM75.6055 27.9805C77.4688 27.9219 79.2852 29.8906 77.4961 32.0938 76.4844 44.75 71.0977 56.5469 64.5078 67.2383 62.3438 70.4883 55.4375 81.2422 51.7617 81.4414 51.7227 81.4453 51.6836 81.4453 51.6445 81.4453 51.3711 83.1523 50.0234 84.6836 47.8008 84.5508 31.8438 84.3281 16.1836 80.5703 1.0625 75.6758-11.4492 70.7656-29.9375 67.6641-36.7539 54.9297-36.8164 54.9258-36.8789 54.918-36.9453 54.9063-37.9492 54.7031-38.7109 54.0547-39.1211 53.2227-39.4258 52.6055-39.5352 51.8906-39.4141 51.168-38.0313 42.4688-35.1328 34.0859-32.1523 25.8203-29.6992 19.2891-27.0938 12.7852-23.6992 6.6758-22.6953 4.8516-21.625 3.0547-20.4414 1.3359-19.8125 .3984-19.1406-1.0195-17.7695-.7422-17.625-.7109-17.4883-.6641-17.3594-.6055-17.2461-1.1602-16.7539-1.4102-16.0938-1.4961-16.1484-1.5625-16.1953-1.6367-16.2344-1.7188-16.3359-1.9219-16.3828-2.1641-16.3633-2.4492-15.6133-5.6172-10.6719-17.5117-6.5664-12.1602-3.2148-11.6484-.168-10.0195 3.0469-9.1836 4.3945-9.543 6.0781-9.7031 6.9258-8.3203 7.5625-7.3867 7.4336-6.2344 7.0195-5.2383 6.5117-3.0664 6.0937-.8164 5.3789 1.3125 5.9375 1.4844 6.4961 1.6523 7.0586 1.8203 9.0547 .5156 11.7109 .1992 13.7344-1.0898 18.3633-3.9492 22.5508-7.5781 27.5273-9.8555 27.5273-9.8594 27.5273-9.8594 27.5313-9.8594 27.7695-10.1172 28.0859-10.3086 28.4805-10.3828 28.5625-10.375 28.6484-10.3672 28.7305-10.3555 29.4297-10.5977 30.1484-10.7305 30.8906-10.7891 31.8945-10.875 32.75-10.3945 33.2813-9.668 36.3555-9.082 39.4102-8.2891 42.4531-7.582 47.0938-6.3398 52.0898-5.5156 56.168-2.8359 57.3984-2.0625 57.7383-.5781 57.3594 .668 59.1563 3.6406 60.7383 6.7422 61.5625 10.1445 62.3477 13.2422 62.8828 16.4063 63.1133 19.5938 63.1523 20.1758 63.0195 20.7344 62.7539 21.2266 66.8477 23.1992 70.8711 25.3203 74.8672 27.4805 75.1328 27.625 75.3789 27.7891 75.6055 27.9805Z" fill="#cfcfcf"/>
<path transform="matrix(1,0,0,1,757.1562,645.5703)" d="M0 0C4.6094-5.2422 5.0234-10.8242 2.7422-15.4687 .6367-19.7656-3.7734-23.2617-9.3008-24.9688-13.75-26.6328-18.8359-26.3359-22.7773-23.5547-29.2305-19.1797-35.1875-10.5859-31.7891-2.6562-29.5469 1.3281-25.8984 5.3477-21.2617 6.3164-20.1133 6.5078-18.2383 6.6289-18.5586 8.2656-11.7734 7.7812-4.668 5.0664 0 0ZM2.1875-25.3203C15.1641-15.8867 11.0156 2.6133-1.875 9.9844-6.8437 12.8008-12.5234 14.7539-18.2773 14.8242-21.1328 14.8242-23.832 13.793-26.3398 12.5273-28.4336 11.6602-28.625 8.6016-26.5781 7.5547-30.7617 5.375-34.5664 2.0508-36.5938-2.082-37.8516-4.6406-38.4258-7.5156-37.9922-10.6211-36.8516-21.0469-27.7617-30.2852-17.2969-31.3789-10.3828-31.8711-3.4219-29.25 2.1875-25.3203Z" fill="#cfcfcf"/>
<path transform="matrix(1,0,0,1,1072.2891,534.125)" d="M0 0C-1.8516-2.7187-3.3047-5.7109-4.2539-8.8906-5.5078-13.1836-6.1094-17.5508-6.1367-21.9063-8.7422-20.418-11.1328-18.4688-13.5859-16.7891-22.8789-9.668-34.0156-1.75-38.6406 9.3398-36.9766 9.8594-35.1914 10.082-33.332 10.082-24.8867 10.082-14.9062 5.4687-7.6172 3.0234-5.0586 2.0625-2.5195 1.0547 0 0ZM98.6016-47.5938C89.793-40.793 80.668-34.4102 71.1445-28.6563 59.1875-21.3477 46.5703-15.2305 34.1367-8.8008 26.3828-4.625 18.4805-.7187 10.4297 2.832 14.6992 6.6875 20.082 9.2812 25.8789 9.8125 26.3203 9.3164 26.8906 8.9375 27.5625 8.7656 30.4023 8.0352 33.2422 7.3242 36.0938 6.6445 41.5117 5.3281 47.043 3.2734 51.8281 .5469 69.4219-9.9297 93.2578-26.668 98.6016-47.5938ZM89.7852-49.7305C92.8828-52.0898 96.0156-54.4414 99.125-56.8359 96.7109-70.4336 79.5625-76.6094 66.2344-76.6523 48.6523-76.8789 30.6953-71.6992 17.8516-59.4453 8.75-50.6289 2.0781-38.4102 .7656-25.7031 1.2617-25.0391 1.3984-24.2227 .7852-23.4531 .7227-23.3828 .6523-23.3203 .582-23.2695 .3984-19.4922 .7031-15.6875 1.5703-11.9297 2.3711-8.5625 3.8242-5.3594 5.7773-2.4961 13.9805-6.1562 21.9961-10.2305 29.9141-14.4883 50.6055-24.9531 71.1367-35.8516 89.7852-49.7305ZM105.7891-62.1172C112.1602-67.332 118.2031-72.9141 123.3203-79.3477 115.1914-78.2227 108.3203-73.0977 100.5273-70.7891 102.7969-68.2305 104.5977-65.332 105.7891-62.1172ZM130.4453-81.6289C131.9844-74.2227 112.9531-59.5664 107.4063-54.6055 107.3984-54.5977 107.3906-54.5938 107.3828-54.5859 107.5859-51.4219 107.2578-48.0391 106.3086-44.4531 102.0117-28.1094 89.3281-15.707 76.5117-5.4609 66.2891 2.3867 55.4766 10.1875 42.9219 13.7227 38.5117 14.9727 33.9453 15.5664 29.4297 16.3164 28.0273 16.5508 26.5508 15.9805 25.6836 14.8789 17.7305 14.4062 10.1914 10.8437 4.5195 5.3594-1.5547 7.8828-7.7148 10.1914-13.9648 12.2617-21.1445 14.5-28.5547 16.9844-36.1758 16.2188-53.5977 14.043-40.4961-1.5156-33.2188-7.7422-27.8477-12.5117-21.8047-16.4375-15.707-20.2148-12.5195-22.0586-9.4102-24.2422-6.0156-25.7227-4.6445-45.5273 8.2305-64.5039 25.4219-74.2305 39.5273-82.1836 56.2617-85.2656 72.3242-83.7695 81.3281-82.9766 90.0039-79.8047 96.4805-74.625 96.6328-74.7852 96.8125-74.9297 97.0195-75.0625 103.5273-78.582 126.7305-92.8359 130.4453-81.6289Z" fill="#cfcfcf"/>
<path transform="matrix(1,0,0,1,445.8437,438.2852)" d="M0 0C-2.0703-1.0352-3.0859-2.9922-3.1367-5.1562-10.6484-.5937-18.1484 3.9766-25.5547 8.7109-32.5078 13.3125-45.2188 20.1484-48.6992 27.7266-46.0664 28.1523-43.4805 26.8086-41.0078 26.0586-38.5273 25.0977-36.0859 24.0625-33.6875 22.9102-28.2344 20.3008-22.8203 17.5781-17.8125 14.1797-13.6016 11.1133-9.5742 7.8164-5.3906 4.7148-3.5039 3.2539-1.6328 1.7422 0 0ZM7.543-18.0547C7.5352-18.1445 7.5391-18.2422 7.5469-18.3398 5.5273-20.0703 3.7383-22.0273 2.0312-24.0586 .0781-26.0469-1.7969-28.1055-3.4805-30.3242-4.2656-31.3594-5.0117-32.4219-5.7187-33.5117-8.0117-36.293-10.2969-39.082-12.5352-41.918-17.6641-48.4063-22.0547-55.5078-28.0547-61.2695-27.9063-59.1289-27.5742-57-27.3359-54.8672-26.8203-50.7422-27.1953-46.2539-24.6484-42.7031-17.8984-35.125-10.2187-28.1875-2.0234-22.1953 .5664-20.4727 3.2148-18.8555 5.5859-16.8516 6.2266-17.2695 6.8789-17.668 7.543-18.0547ZM9.6602-24.8789C10.3281-23.8633 11.6094-22.7227 12.6055-21.5156 8.5391-33.8711 5.7578-46.6328 1.3711-58.9023-1.1055-66.3438-3.8203-73.6953-6.2773-81.1406-6.9219-77.8164-7.2734-74.4023-8.125-71.1211-8.7695-66.7695-10.8633-62.5313-10.6836-58.1094-8.1211-48.7617-3.3281-40.0313 2.8398-32.5781 5.0664-29.9727 7.3906-27.4531 9.6602-24.8789ZM22.5391-10.8008C22.7422-10.957 22.9414-11.1172 23.1445-11.2773 19.9531-13.1953 17.9336-16.6133 17.6719-20.1953 17.6328-20.168 17.5938-20.1406 17.5547-20.1133 17.1914-18.9648 16.1367-18.2891 15.0625-18.2891 14.9453-18.2891 14.8281-18.2969 14.7148-18.3125 14.4375-18.1523 14.1523-17.9844 13.8594-17.8203 13.75-17.4844 13.5586-17.1484 13.2695-16.8125 12.7461-16.2656 12.0234-15.9844 11.3008-15.9844 11.1172-15.9844 10.9336-16.0039 10.7578-16.0391 7.6758-14.2461 4.5078-12.2383 2.4844-9.9219 2.6328-9.2305 2.3359-8.4844 1.707-8.0977 1.4531-7.9414 1.1992-7.7891 .9453-7.6367 .5273-6.75 .3008-5.8203 .3164-4.8477 1.7969-.7539 9.8711-4.0352 14.6992-6.2031 14.7695-7.0391 14.8672-7.8711 14.9883-8.7031 15.2891-9.6445 16.3594-10.0703 17.2461-9.8359 17.2969-10.0703 17.3477-10.3008 17.4023-10.5352 17.625-11.543 18.4883-12.3086 19.5234-12.375 20.918-12.4141 21.5586-11.6289 21.8789-10.5859 22.0469-10.6914 22.2422-10.7617 22.457-10.793 22.4844-10.7969 22.5117-10.8008 22.5391-10.8008ZM31.2305-31.8086C31.1172-32.1016 30.9961-32.375 30.8555-32.6016 28.6016-37.1328 22.7305-32.4531 21.0664-28.9102 23.75-31.6172 27.6602-32.5195 31.2305-31.8086ZM31.3125-13.6875C37.1875-15.3359 36.4453-26.3555 30.043-26.3555 29.8906-26.3555 29.7344-26.3477 29.5703-26.3359 21.7891-26.0078 20.1289-15.0977 27.9688-13.3398 28.4258-13.3164 28.8906-13.4531 29.3477-13.5898 30.0117-13.7852 30.668-13.9844 31.3125-13.6875ZM38.3359-8.9805C39.0273-9.8945 38.875-11.4844 38.6953-13.0703 37.6328-11.2344 36.0781-9.7656 34.0625-8.9609 35.5117-8.5039 37-8.2695 38.3359-8.9805ZM56.0508 48.3984C56.1406 48.4453 56.2344 48.4922 56.332 48.5352 51.1758 39.9336 46.1445 31.2617 40.9688 22.6719 35 12.7227 28.4961 3.0273 22.3594-6.7734 22.5273-3.3867 22.3047 .0195 22.7344 3.3906 24.6094 14.1875 28.0938 25.3047 35.4648 33.6328 41.5977 39.418 48.4727 44.6563 56.0508 48.3984ZM63.4766 49.5313C64.7656 51.7344 62.9375 53.832 61.0156 53.832 60.1953 53.832 59.3555 53.4492 58.7383 52.5273 58.5469 52.2109 58.3555 51.8906 58.1641 51.5742 46.7617 49.793 36.2773 43.8008 29.3477 34.7109 32.2461 42.4727 41.5117 65.6406 36.6211 65.8828 36.5 65.9063 36.3789 65.9219 36.2578 65.9219 35.457 65.9219 34.7227 65.3945 34.4375 64.6094 34.2773 64.1836 34.125 63.7578 33.9805 63.3281 29.1367 60.8945 25.0508 57.0703 21.8555 52.668 19.1094 48.9648 14.9687 46.2383 13.8281 41.5234 9.793 28.4492 5.9609 13.8555 9.4727 .2773 9.957-1.918 13.2891-1.7305 13.4062 .5625 13.4062 2.293 13.3242 4.0078 13.2187 5.7305 12.7187 13.9141 13.7539 22.0938 15.1328 30.1445 16.168 34.8125 16.6328 39.8945 19.2539 43.9922 20.8594 45.8555 22.8477 47.3672 24.2148 49.4414 26.6992 53.0703 29.0547 57.1445 32.7891 59.5313 31.9297 56.5664 31.1719 53.5664 30.1875 50.6367 27.5195 42.1484 24.1719 33.8828 21.3398 25.4453 19.0586 18.6406 16.9023 11.7656 15.4687 4.7227 14.8672 2.207 14.582-.3516 14.5703-2.9102 13.4531-2.4062 12.3242-1.9297 11.1914-1.4727 8.6914-.5312 6.1289 .6289 3.4219 .7227 3.2891 .8477 3.1211 .9453 2.9141 1.0078-1.5898 7.2187-6.4648 13.332-12.418 18.2188-16.5117 21.582-21.2344 24.0703-25.9609 26.418-32.2852 29.332-39.1875 32.8203-46.2813 32.8203-47.3398 32.8203-48.4023 32.7422-49.4688 32.5742-63.043 27-37.6484 11.2734-32.375 7.7812-24.2656 2.543-16.2227-2.8437-7.6484-7.3047-5.6289-8.3789-3.5664-9.3711-1.4961-10.3437-1.2852-10.6523-1.0508-10.9492-.7969-11.2383-.1094-12.1055 .6445-12.9062 1.4453-13.6562-9.2227-17.7383-17.3906-26.5156-24.9063-34.875-32.7109-42.1094-30.3984-47.5508-31.9961-56.8555-32.3477-60.0898-33.5508-65.2227-31.1602-67.8047-30.2305-68.5859-28.668-68.375-28.168-67.2109-22.1016-63.5391-17.9844-57.6719-13.9805-51.8281-14.4883-53.6484-14.9258-55.4922-15.2812-57.3477-15.8711-61.5352-14.4883-65.7266-13.4805-69.7461-12.6523-72.4023-10.6133-81.7539-7.6016-85.2617-7.8867-86.168-8.1641-87.0742-8.4375-87.9805-9.582-91.957-3.75-93.8711-2.3789-89.8945 4.8281-70.8672 9.8398-50.9766 14.6797-31.2852 15.3789-28.6484 16.1055-26.0156 17.0859-23.4688 17.1875-23.1914 17.2969-22.9063 17.3945-22.6133 17.5156-22.6133 17.6406-22.5898 17.7539-22.543 17.9219-23.7031 18.2891-24.8477 18.8711-25.9336 17.0234-26.6367 17.9414-28.8906 18.5273-30.2383 19.7109-33.0078 21.7305-35.5234 24.3633-37.0273 28.5117-39.4648 33.6211-36.8711 34.7148-32.332 34.8281-31.7617 35.043-31.0039 35.0625-30.3086 37.0195-29.1016 38.6016-27.2773 39.4141-24.8789 40.2773-22.6328 40.5508-20.1914 40.2656-17.8906 42.2266-17.7734 42.0938-14.957 42.293-13.4609 42.6953-10.0312 41.8203-4.9258 37.668-4.9258 37.4531-4.9258 37.2344-4.9414 37.0039-4.9687 34.5469-5.2344 32.3984-6.6719 30.2617-7.793 30.0781-7.9297 29.9492-8.1016 29.875-8.2891 29.6367-8.2969 29.3945-8.3164 29.1484-8.3398 28.9102-8.3398 28.668-8.3437 28.4336-8.3398 27.4922-8.3359 26.6523-9.0977 26.3945-9.9687 26.3008-9.9922 26.2031-10.0117 26.1094-10.043 25.9258-9.668 25.5469-9.3945 24.9258-9.375 24.8984-9.3516 24.8711-9.3242 24.8438-9.3008 25.1602-8.8086 25.4375-8.2734 25.7266-7.8477 31.4766 .8984 38.0977 8.9258 43.8711 17.6445 50.9102 27.9531 57.3242 38.6758 63.4766 49.5313Z" fill="#cfcfcf"/>
</g>
</svg>
